<svg width="388" height="250" viewBox="0 0 388 250" fill="none" xmlns="http://www.w3.org/2000/svg"><path d="M388 10c0-5.523-4.477-10-10-10H10C4.477 0 0 4.477 0 10v230c0 5.523 4.477 10 10 10h368c5.523 0 10-4.477 10-10V10z" fill="#fff"/><path d="M34.818 66.364H33.41V78h1.41V66.364zm10.94 2.909h-1.864v-2.091h-1.341v2.09h-1.319v1.137h1.319v5.455c0 1.522 1.227 2.25 2.363 2.25.5 0 .818-.091 1-.16l-.272-1.204c-.114.023-.296.068-.591.068-.591 0-1.16-.182-1.16-1.318v-5.09h1.864v-1.137zm3.545 3.477c0-1.523.971-2.386 2.295-2.386 1.261 0 2.023.795 2.023 2.181V78h1.34v-5.546c0-2.244-1.192-3.295-2.977-3.295-1.375 0-2.159.574-2.568 1.477h-.113v-4.272h-1.341V78h1.34v-5.25zM57.415 78h1.34v-8.727h-1.34V78zm.682-10.182c.522 0 .954-.409.954-.909S58.62 66 58.097 66c-.523 0-.955.41-.955.91s.432.908.955.908zm4.456 4.932c0-1.523.943-2.386 2.227-2.386 1.244 0 2 .812 2 2.181V78h1.34v-5.546c0-2.227-1.187-3.295-2.954-3.295-1.318 0-2.136.591-2.545 1.477h-.114v-1.363h-1.295V78h1.34v-5.25zM70.57 78h1.34v-3.267l.938-.87L76.116 78h1.705l-3.96-5 3.687-3.727H75.89l-3.818 3.886h-.16v-6.795h-1.34V78zm15.18 0h1.319l1.909-6.704h.136L91.025 78h1.317l2.66-8.727h-1.41l-1.886 6.659h-.09l-1.842-6.66h-1.432l-1.863 6.682h-.091L84.5 69.273h-1.409L85.752 78zm14.385.182c1.773 0 3.069-.886 3.478-2.205l-1.296-.363c-.341.909-1.13 1.363-2.182 1.363-1.573 0-2.659-1.017-2.721-2.886h6.335v-.568c0-3.25-1.932-4.364-3.75-4.364-2.364 0-3.932 1.864-3.932 4.545 0 2.682 1.546 4.478 4.068 4.478zm-2.721-5.25c.09-1.358 1.05-2.568 2.585-2.568 1.455 0 2.386 1.09 2.386 2.568h-4.971zm19.057-1.705c-.421-1.238-1.364-2.068-3.091-2.068-1.841 0-3.205 1.045-3.205 2.523 0 1.204.716 2.011 2.318 2.386l1.455.341c.881.205 1.295.625 1.295 1.227 0 .75-.795 1.364-2.045 1.364-1.097 0-1.784-.472-2.023-1.41l-1.273.32c.313 1.482 1.535 2.272 3.319 2.272 2.028 0 3.409-1.108 3.409-2.614 0-1.216-.762-1.983-2.319-2.364l-1.295-.318c-1.034-.255-1.5-.602-1.5-1.272 0-.75.795-1.296 1.864-1.296 1.17 0 1.653.648 1.886 1.25l1.205-.34zm3.518 1.523c0-1.523.972-2.386 2.296-2.386 1.261 0 2.022.795 2.022 2.181V78h1.341v-5.546c0-2.244-1.193-3.295-2.977-3.295-1.375 0-2.159.574-2.568 1.477h-.114v-4.272h-1.341V78h1.341v-5.25zm11.658 5.432c2.363 0 3.954-1.796 3.954-4.5 0-2.728-1.591-4.523-3.954-4.523-2.364 0-3.955 1.795-3.955 4.523 0 2.704 1.591 4.5 3.955 4.5zm0-1.205c-1.796 0-2.614-1.545-2.614-3.295s.818-3.318 2.614-3.318c1.795 0 2.613 1.568 2.613 3.318s-.818 3.295-2.613 3.295zm11.501-2.545c0 1.636-1.25 2.386-2.25 2.386-1.113 0-1.909-.818-1.909-2.09v-5.455h-1.341v5.545c0 2.228 1.182 3.296 2.818 3.296 1.319 0 2.182-.705 2.591-1.591h.091V78h1.341v-8.727h-1.341v5.159zm5.138-8.068h-1.341V78h1.341V66.364zm5.751 11.818c1.682 0 2.25-1.046 2.546-1.523h.159V78h1.295V66.364h-1.341v4.295h-.113c-.296-.455-.818-1.5-2.523-1.5-2.204 0-3.727 1.75-3.727 4.5 0 2.773 1.523 4.523 3.704 4.523zm.182-1.205c-1.682 0-2.545-1.477-2.545-3.34 0-1.841.841-3.273 2.545-3.273 1.637 0 2.5 1.318 2.5 3.272 0 1.978-.886 3.341-2.5 3.341zM165.362 78h1.296v-1.34h.159c.295.476.863 1.522 2.545 1.522 2.182 0 3.705-1.75 3.705-4.523 0-2.75-1.523-4.5-3.728-4.5-1.704 0-2.227 1.045-2.522 1.5h-.114v-4.295h-1.341V78zm1.318-4.364c0-1.954.864-3.272 2.5-3.272 1.705 0 2.546 1.431 2.546 3.272 0 1.864-.864 3.341-2.546 3.341-1.613 0-2.5-1.363-2.5-3.34zm12.097 4.546c1.773 0 3.068-.886 3.477-2.205l-1.295-.363c-.341.909-1.131 1.363-2.182 1.363-1.574 0-2.659-1.017-2.722-2.886h6.336v-.568c0-3.25-1.932-4.364-3.75-4.364-2.364 0-3.932 1.864-3.932 4.545 0 2.682 1.545 4.478 4.068 4.478zm-2.722-5.25c.091-1.358 1.052-2.568 2.586-2.568 1.454 0 2.386 1.09 2.386 2.568h-4.972zm15.444 5.272c1.522 0 2.318-.818 2.59-1.386h.069V78h1.341v-5.75c0-2.773-2.114-3.09-3.228-3.09-1.318 0-2.818.454-3.5 2.044l1.273.455c.295-.636.994-1.318 2.273-1.318 1.233 0 1.841.653 1.841 1.773v.045c0 .648-.659.591-2.25.795-1.62.21-3.387.569-3.387 2.569 0 1.704 1.318 2.681 2.978 2.681zm.204-1.204c-1.068 0-1.841-.477-1.841-1.41 0-1.022.932-1.34 1.977-1.476.569-.069 2.091-.228 2.319-.5v1.227c0 1.09-.864 2.159-2.455 2.159zm6.425 1h1.295v-1.34h.159c.296.476.864 1.522 2.546 1.522 2.182 0 3.704-1.75 3.704-4.523 0-2.75-1.522-4.5-3.727-4.5-1.704 0-2.227 1.045-2.523 1.5h-.113v-4.295h-1.341V78zm1.318-4.364c0-1.954.864-3.272 2.5-3.272 1.705 0 2.545 1.431 2.545 3.272 0 1.864-.863 3.341-2.545 3.341-1.614 0-2.5-1.363-2.5-3.34zm9.778-7.272h-1.34V78h1.34V66.364zm6.115 11.818c1.773 0 3.069-.886 3.478-2.205l-1.296-.363c-.341.909-1.13 1.363-2.182 1.363-1.573 0-2.659-1.017-2.721-2.886h6.335v-.568c0-3.25-1.932-4.364-3.75-4.364-2.364 0-3.932 1.864-3.932 4.545 0 2.682 1.546 4.478 4.068 4.478zm-2.721-5.25c.091-1.358 1.051-2.568 2.585-2.568 1.455 0 2.386 1.09 2.386 2.568h-4.971zm16.67-3.66h-1.863v-2.09h-1.341v2.09h-1.318v1.137h1.318v5.455c0 1.522 1.227 2.25 2.363 2.25.5 0 .819-.091 1-.16l-.272-1.204c-.114.023-.296.068-.591.068-.591 0-1.159-.182-1.159-1.318v-5.09h1.863v-1.137zm5.469 8.91c2.364 0 3.955-1.796 3.955-4.5 0-2.728-1.591-4.523-3.955-4.523s-3.954 1.795-3.954 4.523c0 2.704 1.59 4.5 3.954 4.5zm0-1.205c-1.795 0-2.614-1.545-2.614-3.295s.819-3.318 2.614-3.318c1.796 0 2.614 1.568 2.614 3.318s-.818 3.295-2.614 3.295zm16.683-5.75c-.42-1.238-1.363-2.068-3.091-2.068-1.84 0-3.204 1.045-3.204 2.523 0 1.204.716 2.011 2.318 2.386l1.455.341c.88.205 1.295.625 1.295 1.227 0 .75-.795 1.364-2.045 1.364-1.097 0-1.784-.472-2.023-1.41l-1.273.32c.313 1.482 1.534 2.272 3.318 2.272 2.029 0 3.409-1.108 3.409-2.614 0-1.216-.761-1.983-2.318-2.364l-1.295-.318c-1.034-.255-1.5-.602-1.5-1.272 0-.75.795-1.296 1.863-1.296 1.171 0 1.654.648 1.887 1.25l1.204-.34zm5.723 6.955c2.364 0 3.955-1.796 3.955-4.5 0-2.728-1.591-4.523-3.955-4.523-2.363 0-3.954 1.795-3.954 4.523 0 2.704 1.591 4.5 3.954 4.5zm0-1.205c-1.795 0-2.613-1.545-2.613-3.295s.818-3.318 2.613-3.318c1.796 0 2.614 1.568 2.614 3.318s-.818 3.295-2.614 3.295zm7.343-10.613h-1.341V78h1.341V66.364zm9.592 2.909h-1.455l-2.409 6.954h-.091l-2.409-6.954h-1.454L269.507 78h1.364l3.227-8.727zm5.116 8.909c1.773 0 3.069-.886 3.478-2.205l-1.296-.363c-.341.909-1.13 1.363-2.182 1.363-1.573 0-2.659-1.017-2.721-2.886h6.335v-.568c0-3.25-1.932-4.364-3.75-4.364-2.364 0-3.932 1.864-3.932 4.545 0 2.682 1.546 4.478 4.068 4.478zm-2.721-5.25c.091-1.358 1.051-2.568 2.585-2.568 1.455 0 2.386 1.09 2.386 2.568h-4.971zm16.67-3.66H291.3v-2.09h-1.341v2.09h-1.318v1.137h1.318v5.455c0 1.522 1.227 2.25 2.363 2.25.5 0 .819-.091 1-.16l-.272-1.204c-.114.023-.296.068-.591.068-.591 0-1.159-.182-1.159-1.318v-5.09h1.863v-1.137zm3.546 3.478c0-1.523.971-2.386 2.295-2.386 1.262 0 2.023.795 2.023 2.181V78h1.341v-5.546c0-2.244-1.193-3.295-2.977-3.295-1.375 0-2.159.574-2.569 1.477h-.113v-4.272h-1.341V78h1.341v-5.25zm8.112 5.25h1.341v-8.727h-1.341V78zm.682-10.182c.523 0 .954-.409.954-.909s-.431-.909-.954-.909c-.523 0-.955.41-.955.91s.432.908.955.908zm9.297 3.41c-.421-1.24-1.364-2.069-3.091-2.069-1.841 0-3.205 1.045-3.205 2.523 0 1.204.716 2.011 2.318 2.386l1.455.341c.881.205 1.295.625 1.295 1.227 0 .75-.795 1.364-2.045 1.364-1.097 0-1.784-.472-2.023-1.41l-1.272.32c.312 1.482 1.534 2.272 3.318 2.272 2.028 0 3.409-1.108 3.409-2.614 0-1.216-.762-1.983-2.318-2.364l-1.296-.318c-1.034-.255-1.5-.602-1.5-1.272 0-.75.796-1.296 1.864-1.296 1.17 0 1.653.648 1.886 1.25l1.205-.34zM33.227 108h1.341v-8.727h-1.34V108zm.682-10.182c.523 0 .955-.409.955-.909S34.432 96 33.909 96c-.523 0-.954.41-.954.91s.431.908.954.908zm9.297 3.409c-.42-1.238-1.364-2.068-3.09-2.068-1.842 0-3.206 1.046-3.206 2.523 0 1.204.716 2.011 2.319 2.386l1.454.341c.88.205 1.296.625 1.296 1.227 0 .75-.796 1.364-2.046 1.364-1.096 0-1.784-.472-2.023-1.409l-1.272.318c.312 1.483 1.534 2.273 3.318 2.273 2.028 0 3.41-1.108 3.41-2.614 0-1.216-.762-1.983-2.32-2.363l-1.295-.319c-1.034-.255-1.5-.602-1.5-1.272 0-.75.796-1.296 1.864-1.296 1.17 0 1.654.648 1.886 1.25l1.205-.341zm8.36 0c-.421-1.238-1.364-2.068-3.092-2.068-1.84 0-3.204 1.046-3.204 2.523 0 1.204.716 2.011 2.318 2.386l1.455.341c.88.205 1.295.625 1.295 1.227 0 .75-.795 1.364-2.045 1.364-1.097 0-1.785-.472-2.023-1.409l-1.273.318c.313 1.483 1.534 2.273 3.318 2.273 2.029 0 3.41-1.108 3.41-2.614 0-1.216-.762-1.983-2.319-2.363l-1.295-.319c-1.034-.255-1.5-.602-1.5-1.272 0-.75.795-1.296 1.863-1.296 1.17 0 1.654.648 1.887 1.25l1.204-.341zm7.677 3.205c0 1.636-1.25 2.386-2.25 2.386-1.114 0-1.91-.818-1.91-2.091v-5.454h-1.34v5.545c0 2.227 1.182 3.296 2.818 3.296 1.318 0 2.182-.705 2.591-1.591h.09V108h1.342v-8.727h-1.341v5.159zm7.456 3.75c1.773 0 3.068-.887 3.477-2.205l-1.295-.363c-.341.909-1.131 1.363-2.182 1.363-1.574 0-2.66-1.017-2.722-2.886h6.336v-.568c0-3.25-1.932-4.364-3.75-4.364-2.364 0-3.932 1.864-3.932 4.546 0 2.681 1.545 4.477 4.068 4.477zm-2.722-5.25c.091-1.358 1.051-2.568 2.586-2.568 1.454 0 2.386 1.091 2.386 2.568h-4.972zm16.762-3.66h-1.955v-.886c0-.863.364-1.318 1.25-1.318.386 0 .614.091.75.136l.386-1.158c-.204-.092-.613-.228-1.272-.228-1.25 0-2.455.75-2.455 2.25v1.205h-1.409v1.136h1.41V108h1.34v-7.591h1.955v-1.136zm5.065 8.91c2.364 0 3.954-1.796 3.954-4.5 0-2.727-1.59-4.523-3.954-4.523s-3.955 1.796-3.955 4.523c0 2.704 1.591 4.5 3.955 4.5zm0-1.205c-1.796 0-2.614-1.545-2.614-3.295s.819-3.318 2.614-3.318 2.614 1.568 2.614 3.318-.819 3.295-2.614 3.295zM91.805 108h1.341v-5.523c0-1.182.932-2.045 2.205-2.045.358 0 .727.068.818.091v-1.364a12.851 12.851 0 0 0-.704-.023c-1.046 0-1.955.591-2.273 1.455H93.1v-1.318h-1.296V108zm11.317 3.273c1.21 0 2.063-.642 2.568-2l3.716-9.977-1.466-.023-2.409 6.954h-.091l-2.409-6.954h-1.454l3.227 8.772-.25.682c-.489 1.33-1.091 1.455-2.068 1.205l-.341 1.182c.136.068.523.159.977.159zm11.291-3.091c2.364 0 3.955-1.796 3.955-4.5 0-2.727-1.591-4.523-3.955-4.523-2.363 0-3.954 1.796-3.954 4.523 0 2.704 1.591 4.5 3.954 4.5zm0-1.205c-1.795 0-2.613-1.545-2.613-3.295s.818-3.318 2.613-3.318c1.796 0 2.614 1.568 2.614 3.318s-.818 3.295-2.614 3.295zm11.502-2.545c0 1.636-1.25 2.386-2.25 2.386-1.114 0-1.909-.818-1.909-2.091v-5.454h-1.341v5.545c0 2.227 1.182 3.296 2.818 3.296 1.318 0 2.182-.705 2.591-1.591h.091V108h1.341v-8.727h-1.341v5.159zm4.774 3.659c.562 0 1.023-.46 1.023-1.023 0-.562-.461-1.023-1.023-1.023-.563 0-1.023.461-1.023 1.023 0 .563.46 1.023 1.023 1.023z" fill="#4D536E"/><g style="mix-blend-mode:multiply"><path fill="#F2E0FF" d="M240 58H32v30h208z"/><path fill="#8F4DBF" d="M240 84.767H32V88h208z"/></g></svg>