<svg width="388" height="250" viewBox="0 0 388 250" fill="none" xmlns="http://www.w3.org/2000/svg"><path d="M388 10c0-5.523-4.477-10-10-10H10C4.477 0 0 4.477 0 10v230c0 5.523 4.477 10 10 10h368c5.523 0 10-4.477 10-10V10z" fill="#fff"/><path d="M41.364 70h1.454c-.432-2.25-2.318-3.796-4.773-3.796-2.983 0-5.09 2.296-5.09 5.978s2.09 5.977 5.181 5.977c2.773 0 4.75-1.847 4.75-4.727v-1.25h-4.431v1.25h3.068c-.04 2.09-1.415 3.409-3.387 3.409-2.159 0-3.818-1.636-3.818-4.66 0-3.022 1.66-4.658 3.727-4.658 1.682 0 2.824.949 3.319 2.477zm3.754 8h1.34v-5.523c0-1.181.933-2.045 2.205-2.045.358 0 .728.068.819.09V69.16a12.851 12.851 0 0 0-.705-.023c-1.046 0-1.955.591-2.273 1.455h-.09v-1.318h-1.296V78zm8.521.204c1.523 0 2.318-.818 2.591-1.386h.068V78h1.341v-5.75c0-2.773-2.113-3.09-3.227-3.09-1.318 0-2.818.454-3.5 2.044l1.273.455c.295-.636.994-1.318 2.272-1.318 1.233 0 1.841.653 1.841 1.773v.045c0 .648-.659.591-2.25.795-1.619.21-3.386.569-3.386 2.569 0 1.704 1.318 2.681 2.977 2.681zM53.844 77c-1.068 0-1.841-.477-1.841-1.41 0-1.022.932-1.34 1.977-1.476.568-.069 2.091-.228 2.318-.5v1.227c0 1.09-.863 2.159-2.454 2.159zm6.243 1h1.34v-5.454c0-1.279.932-2.182 1.978-2.182 1.017 0 1.727.664 1.727 1.659V78h1.364v-5.682c0-1.125.704-1.954 1.932-1.954.954 0 1.772.505 1.772 1.795V78h1.341v-5.84c0-2.052-1.102-3-2.659-3-1.25 0-2.165.573-2.614 1.476h-.09c-.432-.931-1.194-1.477-2.341-1.477-1.137 0-1.978.545-2.341 1.477h-.114v-1.363h-1.295V78zm13.906 0h1.34v-5.454c0-1.279.933-2.182 1.978-2.182 1.017 0 1.727.664 1.727 1.659V78h1.364v-5.682c0-1.125.704-1.954 1.932-1.954.954 0 1.772.505 1.772 1.795V78h1.341v-5.84c0-2.052-1.102-3-2.659-3-1.25 0-2.164.573-2.613 1.476h-.091c-.432-.931-1.193-1.477-2.341-1.477-1.136 0-1.977.545-2.341 1.477h-.114v-1.363h-1.295V78zm16.474.204c1.523 0 2.319-.818 2.591-1.386h.068V78h1.341v-5.75c0-2.773-2.113-3.09-3.227-3.09-1.318 0-2.818.454-3.5 2.044l1.273.455c.295-.636.994-1.318 2.272-1.318 1.234 0 1.841.653 1.841 1.773v.045c0 .648-.659.591-2.25.795-1.619.21-3.386.569-3.386 2.569 0 1.704 1.318 2.681 2.977 2.681zM90.672 77c-1.068 0-1.841-.477-1.841-1.41 0-1.022.932-1.34 1.977-1.476.568-.069 2.091-.228 2.318-.5v1.227c0 1.09-.863 2.159-2.454 2.159zm6.243 1h1.34v-5.523c0-1.181.933-2.045 2.205-2.045.358 0 .728.068.818.09V69.16a12.815 12.815 0 0 0-.704-.023c-1.046 0-1.955.591-2.273 1.455h-.09v-1.318h-1.296V78zm7.294-11.636h-1.341V78h1.341V66.364zm3.319 14.909c1.211 0 2.063-.642 2.569-2l3.704-10h-1.454l-2.409 6.954h-.091l-2.409-6.954h-1.455l3.227 8.773-.25.681c-.488 1.33-1.091 1.455-2.068 1.205l-.341 1.182c.137.068.523.159.977.159zM122.048 78h1.318l1.91-6.704h.136L127.321 78h1.318l2.659-8.727h-1.409l-1.886 6.659h-.091l-1.841-6.66h-1.432l-1.863 6.682h-.091l-1.887-6.681h-1.409L122.048 78zm11.023 0h1.341v-8.727h-1.341V78zm.682-10.182c.523 0 .954-.409.954-.909s-.431-.909-.954-.909c-.523 0-.955.41-.955.91s.432.908.955.908zm4.456-1.454h-1.341V78h1.341V66.364zm3.797 0h-1.341V78h1.341V66.364zM148.962 78h1.341v-8.727h-1.341V78zm.681-10.182c.523 0 .955-.409.955-.909s-.432-.909-.955-.909c-.522 0-.954.41-.954.91s.432.908.954.908zm4.456 4.932c0-1.523.944-2.386 2.228-2.386 1.244 0 2 .812 2 2.181V78h1.341v-5.546c0-2.227-1.188-3.295-2.955-3.295-1.318 0-2.136.591-2.545 1.477h-.114v-1.363h-1.295V78h1.34v-5.25zm14.201-1.523c-.421-1.238-1.364-2.068-3.091-2.068-1.841 0-3.205 1.045-3.205 2.523 0 1.204.716 2.011 2.318 2.386l1.455.341c.881.205 1.295.625 1.295 1.227 0 .75-.795 1.364-2.045 1.364-1.097 0-1.784-.472-2.023-1.41l-1.272.32c.312 1.482 1.534 2.272 3.318 2.272 2.028 0 3.409-1.108 3.409-2.614 0-1.216-.762-1.983-2.318-2.364l-1.296-.318c-1.034-.255-1.5-.602-1.5-1.272 0-.75.796-1.296 1.864-1.296 1.17 0 1.653.648 1.886 1.25l1.205-.34zm2.177 10.046h1.341v-4.614h.114c.295.477.863 1.523 2.545 1.523 2.182 0 3.705-1.75 3.705-4.523 0-2.75-1.523-4.5-3.727-4.5-1.705 0-2.228 1.045-2.523 1.5h-.159v-1.386h-1.296v12zm1.318-7.637c0-1.954.864-3.272 2.5-3.272 1.705 0 2.546 1.431 2.546 3.272 0 1.864-.864 3.341-2.546 3.341-1.613 0-2.5-1.363-2.5-3.34zm12.091 4.546c1.773 0 3.069-.886 3.478-2.205l-1.296-.363c-.341.909-1.13 1.363-2.182 1.363-1.574 0-2.659-1.017-2.721-2.886h6.335v-.568c0-3.25-1.932-4.364-3.75-4.364-2.364 0-3.932 1.864-3.932 4.545 0 2.682 1.546 4.478 4.068 4.478zm-2.721-5.25c.091-1.358 1.051-2.568 2.585-2.568 1.455 0 2.386 1.09 2.386 2.568h-4.971zm11.92 5.25c1.932 0 3.205-1.182 3.432-2.728h-1.341c-.25.955-1.045 1.523-2.091 1.523-1.591 0-2.613-1.318-2.613-3.34 0-1.978 1.045-3.273 2.613-3.273 1.182 0 1.887.727 2.091 1.522h1.341c-.227-1.636-1.614-2.727-3.455-2.727-2.363 0-3.931 1.864-3.931 4.523 0 2.614 1.5 4.5 3.954 4.5zm9.188-8.91h-1.864v-2.09h-1.341v2.09h-1.318v1.137h1.318v5.455c0 1.522 1.227 2.25 2.364 2.25.5 0 .818-.091 1-.16l-.273-1.204c-.114.023-.295.068-.591.068-.591 0-1.159-.182-1.159-1.318v-5.09h1.864v-1.137zm7.38 12c1.211 0 2.063-.641 2.569-2l3.704-10h-1.454l-2.41 6.955h-.09l-2.41-6.954h-1.454l3.227 8.773-.25.681c-.488 1.33-1.091 1.455-2.068 1.205l-.341 1.182c.136.068.523.159.977.159zm11.276-3.09c2.364 0 3.955-1.796 3.955-4.5 0-2.728-1.591-4.523-3.955-4.523s-3.955 1.795-3.955 4.523c0 2.704 1.591 4.5 3.955 4.5zm0-1.205c-1.795 0-2.614-1.545-2.614-3.295s.819-3.318 2.614-3.318 2.614 1.568 2.614 3.318-.819 3.295-2.614 3.295zm11.501-2.545c0 1.636-1.25 2.386-2.25 2.386-1.113 0-1.909-.818-1.909-2.09v-5.455h-1.341v5.545c0 2.228 1.182 3.296 2.819 3.296 1.318 0 2.181-.705 2.59-1.591h.091V78h1.341v-8.727h-1.341v5.159zM236.227 78h1.341v-5.523c0-1.181.932-2.045 2.205-2.045a4.1 4.1 0 0 1 .818.09V69.16a12.854 12.854 0 0 0-.705-.023c-1.045 0-1.954.591-2.272 1.455h-.091v-1.318h-1.296V78zm12.431 0h1.318l1.909-6.704h.136L253.93 78h1.319l2.659-8.727h-1.409l-1.887 6.659h-.091l-1.841-6.66h-1.431l-1.864 6.682h-.091l-1.886-6.681h-1.409L248.658 78zm11.022 0h1.341v-5.523c0-1.181.932-2.045 2.205-2.045a4.1 4.1 0 0 1 .818.09V69.16a12.854 12.854 0 0 0-.705-.023c-1.045 0-1.954.591-2.272 1.455h-.091v-1.318h-1.296V78zm5.954 0h1.34v-8.727h-1.34V78zm.681-10.182c.523 0 .955-.409.955-.909s-.432-.909-.955-.909c-.522 0-.954.41-.954.91s.432.908.954.908zm6.911 1.455h-1.864v-2.091h-1.341v2.09h-1.318v1.137h1.318v5.455c0 1.522 1.228 2.25 2.364 2.25.5 0 .818-.091 1-.16l-.273-1.204c-.113.023-.295.068-.591.068-.591 0-1.159-.182-1.159-1.318v-5.09h1.864v-1.137zM275.243 78h1.341v-8.727h-1.341V78zm.682-10.182c.522 0 .954-.409.954-.909s-.432-.909-.954-.909c-.523 0-.955.41-.955.91s.432.908.955.908zm4.456 4.932c0-1.523.943-2.386 2.227-2.386 1.244 0 2 .812 2 2.181V78h1.341v-5.546c0-2.227-1.188-3.295-2.955-3.295-1.318 0-2.136.591-2.545 1.477h-.114v-1.363h-1.295V78h1.341v-5.25zm11.541 8.704c2.091 0 3.773-.954 3.773-3.204v-8.977h-1.296v1.386h-.136c-.296-.455-.841-1.5-2.546-1.5-2.204 0-3.727 1.75-3.727 4.432 0 2.727 1.591 4.273 3.705 4.273 1.704 0 2.25-1 2.545-1.478h.114v1.773c0 1.455-1.023 2.114-2.432 2.114-1.585 0-2.142-.835-2.5-1.319l-1.068.75c.545.915 1.619 1.75 3.568 1.75zm-.046-4.795c-1.681 0-2.545-1.273-2.545-3.09 0-1.773.841-3.205 2.545-3.205 1.637 0 2.5 1.318 2.5 3.204 0 1.932-.886 3.091-2.5 3.091zM36.773 108.182c1.931 0 3.204-1.182 3.431-2.727h-1.34c-.25.954-1.046 1.522-2.091 1.522-1.591 0-2.614-1.318-2.614-3.341 0-1.977 1.046-3.272 2.614-3.272 1.181 0 1.886.727 2.09 1.522h1.342c-.228-1.636-1.614-2.727-3.455-2.727-2.364 0-3.932 1.864-3.932 4.523 0 2.613 1.5 4.5 3.955 4.5zm7.96.023c1.523 0 2.318-.819 2.59-1.387h.069V108h1.341v-5.75c0-2.773-2.114-3.09-3.227-3.09-1.319 0-2.819.454-3.5 2.045l1.272.454c.296-.636.995-1.318 2.273-1.318 1.233 0 1.841.653 1.841 1.773v.045c0 .648-.659.591-2.25.796-1.62.21-3.386.568-3.386 2.568 0 1.704 1.318 2.682 2.977 2.682zm.205-1.205c-1.069 0-1.841-.477-1.841-1.409 0-1.023.931-1.341 1.977-1.477.568-.069 2.09-.228 2.318-.5v1.227c0 1.091-.864 2.159-2.455 2.159zm6.242 1h1.341v-5.523c0-1.182.932-2.045 2.205-2.045.358 0 .727.068.818.091v-1.364a12.851 12.851 0 0 0-.704-.023c-1.046 0-1.955.591-2.273 1.455h-.091v-1.318H51.18V108zm9.347.182c1.773 0 3.068-.887 3.477-2.205l-1.295-.363c-.341.909-1.13 1.363-2.182 1.363-1.574 0-2.66-1.017-2.722-2.886h6.336v-.568c0-3.25-1.932-4.364-3.75-4.364-2.364 0-3.932 1.864-3.932 4.546 0 2.681 1.545 4.477 4.068 4.477zm-2.722-5.25c.091-1.358 1.051-2.568 2.586-2.568 1.454 0 2.386 1.091 2.386 2.568h-4.972zm12.262-3.66h-1.955v-.886c0-.863.364-1.318 1.25-1.318.387 0 .614.091.75.136l.387-1.158c-.205-.092-.614-.228-1.273-.228-1.25 0-2.455.75-2.455 2.25v1.205h-1.409v1.136h1.41V108h1.34v-7.591h1.955v-1.136zm7.379 5.16c0 1.636-1.25 2.386-2.25 2.386-1.114 0-1.91-.818-1.91-2.091v-5.454h-1.34v5.545c0 2.227 1.182 3.296 2.818 3.296 1.318 0 2.182-.705 2.591-1.591h.091V108h1.34v-8.727h-1.34v5.159zm5.138-8.068h-1.341V108h1.34V96.364zm3.797 0H85.04V108h1.34V96.364zm3.32 14.909c1.21 0 2.062-.642 2.568-2l3.704-10h-1.454l-2.41 6.954h-.09l-2.41-6.954h-1.454l3.227 8.772-.25.682c-.489 1.33-1.09 1.455-2.068 1.205l-.341 1.182c.136.068.523.159.977.159zm16.337-12h-1.863v-2.091h-1.341v2.09h-1.318v1.137h1.318v5.455c0 1.522 1.227 2.25 2.363 2.25.5 0 .819-.091 1-.159l-.272-1.205c-.114.023-.296.068-.591.068-.591 0-1.159-.182-1.159-1.318v-5.091h1.863v-1.136zm5.469 8.909c2.364 0 3.955-1.796 3.955-4.5 0-2.727-1.591-4.523-3.955-4.523s-3.954 1.796-3.954 4.523c0 2.704 1.59 4.5 3.954 4.5zm0-1.205c-1.795 0-2.614-1.545-2.614-3.295s.819-3.318 2.614-3.318c1.796 0 2.614 1.568 2.614 3.318s-.818 3.295-2.614 3.295zm14.388-7.704h-1.955v-.887c0-.863.364-1.318 1.25-1.318.387 0 .614.091.75.136l.387-1.158c-.205-.092-.614-.228-1.273-.228-1.25 0-2.455.75-2.455 2.25v1.205h-1.409v1.136h1.409V108h1.341v-7.591h1.955v-1.136zm1.879 8.727h1.341v-8.727h-1.341V108zm.682-10.182c.523 0 .955-.409.955-.909s-.432-.909-.955-.909c-.523 0-.955.41-.955.91s.432.908.955.908zm4.456 4.932c0-1.523.943-2.386 2.227-2.386 1.245 0 2 .812 2 2.181V108h1.341v-5.545c0-2.228-1.187-3.296-2.954-3.296-1.319 0-2.137.591-2.546 1.477h-.114v-1.363h-1.295V108h1.341v-5.25zm11.314 5.432c1.682 0 2.25-1.046 2.545-1.523h.159V108h1.296V96.364h-1.341v4.295h-.114c-.295-.454-.818-1.5-2.522-1.5-2.205 0-3.728 1.75-3.728 4.5 0 2.773 1.523 4.523 3.705 4.523zm.182-1.205c-1.682 0-2.546-1.477-2.546-3.341 0-1.841.841-3.272 2.546-3.272 1.636 0 2.5 1.318 2.5 3.272 0 1.978-.887 3.341-2.5 3.341zM157.345 108h1.318l1.909-6.705h.137l1.909 6.705h1.318l2.659-8.727h-1.409l-1.886 6.659h-.091l-1.841-6.66h-1.432l-1.864 6.683h-.09l-1.887-6.682h-1.409l2.659 8.727zm13.591.205c1.523 0 2.318-.819 2.591-1.387h.068V108h1.341v-5.75c0-2.773-2.114-3.09-3.227-3.09-1.318 0-2.818.454-3.5 2.045l1.273.454c.295-.636.994-1.318 2.272-1.318 1.233 0 1.841.653 1.841 1.773v.045c0 .648-.659.591-2.25.796-1.619.21-3.386.568-3.386 2.568 0 1.704 1.318 2.682 2.977 2.682zm.205-1.205c-1.069 0-1.841-.477-1.841-1.409 0-1.023.932-1.341 1.977-1.477.568-.069 2.091-.228 2.318-.5v1.227c0 1.091-.863 2.159-2.454 2.159zm6.794 4.273c1.21 0 2.062-.642 2.568-2l3.704-10h-1.454l-2.409 6.954h-.091l-2.409-6.954h-1.455l3.227 8.772-.25.682c-.488 1.33-1.09 1.455-2.068 1.205l-.341 1.182c.137.068.523.159.978.159zm14.224-10.046c-.42-1.238-1.364-2.068-3.091-2.068-1.841 0-3.204 1.046-3.204 2.523 0 1.204.716 2.011 2.318 2.386l1.454.341c.881.205 1.296.625 1.296 1.227 0 .75-.796 1.364-2.046 1.364-1.096 0-1.784-.472-2.022-1.409l-1.273.318c.312 1.483 1.534 2.273 3.318 2.273 2.029 0 3.409-1.108 3.409-2.614 0-1.216-.761-1.983-2.318-2.363l-1.295-.319c-1.035-.255-1.5-.602-1.5-1.272 0-.75.795-1.296 1.863-1.296 1.171 0 1.654.648 1.887 1.25l1.204-.341zm10.473-1.954h-1.864v-2.091h-1.34v2.09h-1.319v1.137h1.319v5.455c0 1.522 1.227 2.25 2.363 2.25.5 0 .818-.091 1-.159l-.273-1.205c-.113.023-.295.068-.59.068-.591 0-1.16-.182-1.16-1.318v-5.091h1.864v-1.136zm5.469 8.909c2.363 0 3.954-1.796 3.954-4.5 0-2.727-1.591-4.523-3.954-4.523-2.364 0-3.955 1.796-3.955 4.523 0 2.704 1.591 4.5 3.955 4.5zm0-1.205c-1.796 0-2.614-1.545-2.614-3.295s.818-3.318 2.614-3.318c1.795 0 2.613 1.568 2.613 3.318s-.818 3.295-2.613 3.295zM218.602 108h1.341v-8.727h-1.341V108zm.682-10.182c.523 0 .955-.409.955-.909s-.432-.909-.955-.909c-.523 0-.954.41-.954.91s.431.908.954.908zM222.399 108h1.341v-5.455c0-1.278.932-2.181 1.977-2.181 1.017 0 1.728.664 1.728 1.659V108h1.363v-5.682c0-1.125.705-1.954 1.932-1.954.955 0 1.773.505 1.773 1.795V108h1.341v-5.841c0-2.051-1.103-3-2.659-3-1.25 0-2.165.574-2.614 1.477h-.091c-.432-.931-1.193-1.477-2.341-1.477-1.136 0-1.977.545-2.341 1.477h-.113v-1.363h-1.296V108zm13.906 3.273h1.341v-4.614h.114c.295.477.864 1.523 2.545 1.523 2.182 0 3.705-1.75 3.705-4.523 0-2.75-1.523-4.5-3.727-4.5-1.705 0-2.228 1.046-2.523 1.5h-.159v-1.386h-1.296v12zm1.319-7.637c0-1.954.863-3.272 2.5-3.272 1.704 0 2.545 1.431 2.545 3.272 0 1.864-.864 3.341-2.545 3.341-1.614 0-2.5-1.363-2.5-3.341zm8.431 4.364h1.341v-5.523c0-1.182.932-2.045 2.205-2.045.358 0 .727.068.818.091v-1.364a12.854 12.854 0 0 0-.705-.023c-1.045 0-1.954.591-2.272 1.455h-.091v-1.318h-1.296V108zm9.233.182c2.364 0 3.955-1.796 3.955-4.5 0-2.727-1.591-4.523-3.955-4.523-2.363 0-3.954 1.796-3.954 4.523 0 2.704 1.591 4.5 3.954 4.5zm0-1.205c-1.795 0-2.613-1.545-2.613-3.295s.818-3.318 2.613-3.318c1.796 0 2.614 1.568 2.614 3.318s-.818 3.295-2.614 3.295zm12.826-7.704h-1.455l-2.409 6.954h-.091l-2.409-6.954h-1.455l3.228 8.727h1.363l3.228-8.727zm5.116 8.909c1.773 0 3.068-.887 3.477-2.205l-1.295-.363c-.341.909-1.131 1.363-2.182 1.363-1.574 0-2.659-1.017-2.721-2.886h6.335v-.568c0-3.25-1.932-4.364-3.75-4.364-2.364 0-3.932 1.864-3.932 4.546 0 2.681 1.545 4.477 4.068 4.477zm-2.721-5.25c.09-1.358 1.051-2.568 2.585-2.568 1.454 0 2.386 1.091 2.386 2.568h-4.971zm16.42 5.25c1.932 0 3.205-1.182 3.432-2.727h-1.341c-.25.954-1.046 1.522-2.091 1.522-1.591 0-2.614-1.318-2.614-3.341 0-1.977 1.046-3.272 2.614-3.272 1.182 0 1.886.727 2.091 1.522h1.341c-.227-1.636-1.614-2.727-3.455-2.727-2.363 0-3.932 1.864-3.932 4.523 0 2.613 1.5 4.5 3.955 4.5zm6.733-11.818h-1.341V108h1.341V96.364zm5.024 11.841c1.523 0 2.318-.819 2.591-1.387h.068V108h1.341v-5.75c0-2.773-2.114-3.09-3.227-3.09-1.318 0-2.818.454-3.5 2.045l1.273.454c.295-.636.994-1.318 2.272-1.318 1.233 0 1.841.653 1.841 1.773v.045c0 .648-.659.591-2.25.796-1.619.21-3.386.568-3.386 2.568 0 1.704 1.318 2.682 2.977 2.682zm.205-1.205c-1.069 0-1.841-.477-1.841-1.409 0-1.023.932-1.341 1.977-1.477.568-.069 2.091-.228 2.318-.5v1.227c0 1.091-.863 2.159-2.454 2.159zm6.243 1h1.34v-5.523c0-1.182.932-2.045 2.205-2.045.358 0 .727.068.818.091v-1.364a12.849 12.849 0 0 0-.704-.023c-1.046 0-1.955.591-2.273 1.455h-.091v-1.318h-1.295V108zm5.953 0h1.341v-8.727h-1.341V108zm.681-10.182c.523 0 .955-.409.955-.909s-.432-.909-.955-.909c-.522 0-.954.41-.954.91s.432.908.954.908zm6.911 1.455h-1.864v-2.091h-1.341v2.09h-1.318v1.137h1.318v5.455c0 1.522 1.228 2.25 2.364 2.25.5 0 .818-.091 1-.159l-.273-1.205c-.113.023-.295.068-.591.068-.59 0-1.159-.182-1.159-1.318v-5.091h1.864v-1.136zm2.881 12c1.21 0 2.062-.642 2.568-2l3.704-10h-1.454l-2.409 6.954h-.091l-2.409-6.954h-1.455l3.227 8.772-.25.682c-.488 1.33-1.09 1.455-2.068 1.205l-.341 1.182c.137.068.523.159.978.159zm9.495-4.864h-1.454l-.068.636c-.165 1.54-.489 3.074-.637 3.796h1.023c.273-.773.852-2.523 1.045-3.818l.091-.614zM35.205 138h1.318l1.909-6.705h.136l1.91 6.705h1.317l2.66-8.727h-1.41l-1.886 6.659h-.09l-1.842-6.659h-1.431l-1.864 6.682h-.091l-1.886-6.682h-1.41l2.66 8.727zm14.27.182c2.364 0 3.955-1.796 3.955-4.5 0-2.727-1.59-4.523-3.954-4.523s-3.955 1.796-3.955 4.523c0 2.704 1.591 4.5 3.955 4.5zm0-1.205c-1.795 0-2.613-1.545-2.613-3.295s.818-3.318 2.614-3.318c1.795 0 2.614 1.568 2.614 3.318s-.819 3.295-2.614 3.295zM55.478 138h1.341v-5.523c0-1.182.932-2.045 2.205-2.045.358 0 .727.068.818.091v-1.364a13.247 13.247 0 0 0-.705-.023c-1.045 0-1.954.591-2.272 1.455h-.091v-1.318h-1.296V138zm8.983.182c1.682 0 2.25-1.046 2.546-1.523h.159V138h1.295v-11.636h-1.34v4.295h-.114c-.296-.454-.819-1.5-2.523-1.5-2.205 0-3.727 1.75-3.727 4.5 0 2.773 1.522 4.523 3.704 4.523zm.182-1.205c-1.682 0-2.545-1.477-2.545-3.341 0-1.841.84-3.272 2.545-3.272 1.636 0 2.5 1.318 2.5 3.272 0 1.978-.886 3.341-2.5 3.341zm14.506 1.205c1.931 0 3.204-1.182 3.431-2.727h-1.34c-.25.954-1.046 1.522-2.091 1.522-1.591 0-2.614-1.318-2.614-3.341 0-1.977 1.045-3.272 2.614-3.272 1.181 0 1.886.727 2.09 1.522h1.341c-.227-1.636-1.613-2.727-3.454-2.727-2.364 0-3.932 1.864-3.932 4.523 0 2.613 1.5 4.5 3.955 4.5zm6.733-5.432c0-1.523.971-2.386 2.295-2.386 1.261 0 2.023.795 2.023 2.181V138h1.34v-5.545c0-2.245-1.192-3.296-2.977-3.296-1.374 0-2.159.574-2.568 1.477h-.113v-4.272H84.54V138h1.34v-5.25zm11.657 5.432c2.364 0 3.955-1.796 3.955-4.5 0-2.727-1.591-4.523-3.955-4.523-2.363 0-3.954 1.796-3.954 4.523 0 2.704 1.59 4.5 3.954 4.5zm0-1.205c-1.795 0-2.613-1.545-2.613-3.295s.818-3.318 2.613-3.318c1.796 0 2.614 1.568 2.614 3.318s-.818 3.295-2.614 3.295zM103.54 138h1.341v-8.727h-1.341V138zm.682-10.182c.522 0 .954-.409.954-.909s-.432-.909-.954-.909c-.523 0-.955.409-.955.909s.432.909.955.909zm6.66 10.364c1.932 0 3.205-1.182 3.432-2.727h-1.341c-.25.954-1.045 1.522-2.091 1.522-1.591 0-2.614-1.318-2.614-3.341 0-1.977 1.046-3.272 2.614-3.272 1.182 0 1.886.727 2.091 1.522h1.341c-.227-1.636-1.614-2.727-3.455-2.727-2.363 0-3.931 1.864-3.931 4.523 0 2.613 1.5 4.5 3.954 4.5zm9.051 0c1.773 0 3.068-.887 3.478-2.205l-1.296-.363c-.341.909-1.131 1.363-2.182 1.363-1.574 0-2.659-1.017-2.721-2.886h6.335v-.568c0-3.25-1.932-4.364-3.75-4.364-2.364 0-3.932 1.864-3.932 4.546 0 2.681 1.546 4.477 4.068 4.477zm-2.721-5.25c.091-1.358 1.051-2.568 2.585-2.568 1.454 0 2.386 1.091 2.386 2.568h-4.971zm10.375 3.477h-1.455l-.068.636c-.165 1.54-.489 3.074-.636 3.796h1.022c.273-.773.853-2.523 1.046-3.818l.091-.614zm9.552 1.796c1.523 0 2.318-.819 2.591-1.387h.068V138h1.341v-5.75c0-2.773-2.113-3.091-3.227-3.091-1.318 0-2.818.455-3.5 2.046l1.273.454c.295-.636.994-1.318 2.272-1.318 1.233 0 1.841.653 1.841 1.773v.045c0 .648-.659.591-2.25.796-1.619.21-3.386.568-3.386 2.568 0 1.704 1.318 2.682 2.977 2.682zm.205-1.205c-1.068 0-1.841-.477-1.841-1.409 0-1.023.932-1.341 1.977-1.477.568-.069 2.091-.228 2.318-.5v1.227c0 1.091-.863 2.159-2.454 2.159zm7.584-4.25c0-1.523.943-2.386 2.227-2.386 1.244 0 2 .812 2 2.181V138h1.341v-5.545c0-2.228-1.188-3.296-2.955-3.296-1.318 0-2.136.591-2.545 1.477h-.114v-1.363h-1.295V138h1.341v-5.25zm11.313 5.432c1.682 0 2.25-1.046 2.546-1.523h.159V138h1.295v-11.636h-1.34v4.295h-.114c-.296-.454-.818-1.5-2.523-1.5-2.204 0-3.727 1.75-3.727 4.5 0 2.773 1.523 4.523 3.704 4.523zm.182-1.205c-1.682 0-2.545-1.477-2.545-3.341 0-1.841.841-3.272 2.545-3.272 1.637 0 2.5 1.318 2.5 3.272 0 1.978-.886 3.341-2.5 3.341zM167.384 138h1.34v-5.455c0-1.278.932-2.181 1.978-2.181 1.017 0 1.727.664 1.727 1.659V138h1.364v-5.682c0-1.125.704-1.954 1.931-1.954.955 0 1.773.505 1.773 1.795V138h1.341v-5.841c0-2.051-1.102-3-2.659-3-1.25 0-2.165.574-2.614 1.477h-.091c-.431-.931-1.193-1.477-2.34-1.477-1.137 0-1.978.546-2.341 1.477h-.114v-1.363h-1.295V138zm17.451.182c2.364 0 3.955-1.796 3.955-4.5 0-2.727-1.591-4.523-3.955-4.523-2.363 0-3.954 1.796-3.954 4.523 0 2.704 1.591 4.5 3.954 4.5zm0-1.205c-1.795 0-2.613-1.545-2.613-3.295s.818-3.318 2.613-3.318c1.796 0 2.614 1.568 2.614 3.318s-.818 3.295-2.614 3.295zm6.002 1.023h1.341v-5.523c0-1.182.931-2.045 2.204-2.045.358 0 .727.068.818.091v-1.364a13.206 13.206 0 0 0-.704-.023c-1.046 0-1.955.591-2.273 1.455h-.091v-1.318h-1.295V138zm9.346.182c1.773 0 3.068-.887 3.478-2.205l-1.296-.363c-.341.909-1.131 1.363-2.182 1.363-1.574 0-2.659-1.017-2.721-2.886h6.335v-.568c0-3.25-1.932-4.364-3.75-4.364-2.364 0-3.932 1.864-3.932 4.546 0 2.681 1.546 4.477 4.068 4.477zm-2.721-5.25c.091-1.358 1.051-2.568 2.585-2.568 1.454 0 2.386 1.091 2.386 2.568h-4.971zm9.352 5.159c.562 0 1.023-.46 1.023-1.023 0-.562-.461-1.023-1.023-1.023-.563 0-1.023.461-1.023 1.023 0 .563.46 1.023 1.023 1.023z" fill="#4D536E"/><g style="mix-blend-mode:multiply"><path fill="#D7F7F0" d="M296.845 58h-150v30h150z"/><path fill="#15C39A" d="M296.845 84.767h-150V88h150z"/></g><g style="mix-blend-mode:multiply"><path fill="#D7F7F0" d="M97.845 88h-66v30h66z"/><path fill="#15C39A" d="M97.845 114.767h-66V118h66z"/></g></svg>