<svg width="388" height="250" viewBox="0 0 388 250" fill="none" xmlns="http://www.w3.org/2000/svg"><path d="M388 10c0-5.523-4.477-10-10-10H10C4.477 0 0 4.477 0 10v230c0 5.523 4.477 10 10 10h368c5.523 0 10-4.477 10-10V10z" fill="#fff"/><path d="M35.523 78h1.454l2.569-9.273h.09L42.205 78h1.454l3.182-11.636h-1.432l-2.432 9.477h-.113l-2.478-9.477h-1.59l-2.478 9.477h-.113l-2.432-9.477H32.34L35.523 78zm14.233-5.25c0-1.523.971-2.386 2.295-2.386 1.261 0 2.023.795 2.023 2.181V78h1.34v-5.546c0-2.244-1.192-3.295-2.977-3.295-1.374 0-2.159.574-2.568 1.477h-.113v-4.272h-1.341V78h1.34v-5.25zm11.771 5.432c1.773 0 3.068-.886 3.477-2.205l-1.295-.363c-.341.909-1.13 1.363-2.182 1.363-1.574 0-2.66-1.017-2.722-2.886h6.336v-.568c0-3.25-1.932-4.364-3.75-4.364-2.364 0-3.932 1.864-3.932 4.545 0 2.682 1.545 4.478 4.068 4.478zm-2.722-5.25c.091-1.358 1.051-2.568 2.586-2.568 1.454 0 2.386 1.09 2.386 2.568h-4.972zm9.716-.182c0-1.523.944-2.386 2.228-2.386 1.244 0 2 .812 2 2.181V78h1.34v-5.546c0-2.227-1.187-3.295-2.954-3.295-1.318 0-2.136.591-2.546 1.477h-.113v-1.363H67.18V78h1.341v-5.25zM84.7 78.182c1.773 0 3.068-.886 3.477-2.205l-1.295-.363c-.341.909-1.131 1.363-2.182 1.363-1.574 0-2.66-1.017-2.722-2.886h6.335v-.568c0-3.25-1.931-4.364-3.75-4.364-2.363 0-3.931 1.864-3.931 4.545 0 2.682 1.545 4.478 4.068 4.478zm-2.722-5.25c.091-1.358 1.051-2.568 2.585-2.568 1.455 0 2.387 1.09 2.387 2.568h-4.972zm15.246-3.66H95.77l-2.41 6.955h-.09l-2.41-6.954h-1.454L92.632 78h1.364l3.227-8.727zm5.116 8.91c1.773 0 3.069-.886 3.478-2.205l-1.296-.363c-.341.909-1.13 1.363-2.182 1.363-1.573 0-2.659-1.017-2.721-2.886h6.335v-.568c0-3.25-1.932-4.364-3.75-4.364-2.364 0-3.932 1.864-3.932 4.545 0 2.682 1.546 4.478 4.068 4.478zm-2.721-5.25c.09-1.358 1.051-2.568 2.585-2.568 1.455 0 2.386 1.09 2.386 2.568h-4.971zM107.993 78h1.341v-5.523c0-1.181.932-2.045 2.204-2.045.358 0 .728.068.819.09V69.16a12.887 12.887 0 0 0-.705-.023c-1.045 0-1.955.591-2.273 1.455h-.091v-1.318h-1.295V78zm7.082 3.273c1.211 0 2.063-.642 2.568-2l3.705-10h-1.455l-2.409 6.954h-.091l-2.409-6.954h-1.454l3.227 8.773-.25.681c-.489 1.33-1.091 1.455-2.068 1.205l-.341 1.182c.136.068.523.159.977.159zm15.838-3.091c1.682 0 2.25-1.046 2.546-1.523h.159V78h1.295V66.364h-1.341v4.295h-.113c-.296-.455-.818-1.5-2.523-1.5-2.204 0-3.727 1.75-3.727 4.5 0 2.773 1.523 4.523 3.704 4.523zm.182-1.205c-1.682 0-2.545-1.477-2.545-3.34 0-1.841.841-3.273 2.545-3.273 1.637 0 2.5 1.318 2.5 3.272 0 1.978-.886 3.341-2.5 3.341zm10.119 1.205c1.773 0 3.069-.886 3.478-2.205l-1.296-.363c-.341.909-1.13 1.363-2.182 1.363-1.573 0-2.659-1.017-2.721-2.886h6.335v-.568c0-3.25-1.932-4.364-3.75-4.364-2.364 0-3.932 1.864-3.932 4.545 0 2.682 1.546 4.478 4.068 4.478zm-2.721-5.25c.091-1.358 1.051-2.568 2.585-2.568 1.455 0 2.386 1.09 2.386 2.568h-4.971zm12.17-3.66H148.8v-2.09h-1.341v2.09h-1.318v1.137h1.318v5.455c0 1.522 1.227 2.25 2.363 2.25.5 0 .819-.091 1-.16l-.272-1.204c-.114.023-.296.068-.591.068-.591 0-1.159-.182-1.159-1.318v-5.09h1.863v-1.137zm4.586 8.932c1.522 0 2.318-.818 2.59-1.386h.069V78h1.341v-5.75c0-2.773-2.114-3.09-3.228-3.09-1.318 0-2.818.454-3.5 2.044l1.273.455c.295-.636.994-1.318 2.273-1.318 1.233 0 1.841.653 1.841 1.773v.045c0 .648-.659.591-2.25.795-1.62.21-3.387.569-3.387 2.569 0 1.704 1.318 2.681 2.978 2.681zm.204-1.204c-1.068 0-1.841-.477-1.841-1.41 0-1.022.932-1.34 1.977-1.476.569-.069 2.091-.228 2.319-.5v1.227c0 1.09-.864 2.159-2.455 2.159zm6.243 1h1.341v-8.727h-1.341V78zm.682-10.182c.523 0 .954-.409.954-.909s-.431-.909-.954-.909c-.523 0-.955.41-.955.91s.432.908.955.908zm4.456-1.454h-1.341V78h1.341V66.364zm10.501 11.818c1.932 0 3.205-1.182 3.432-2.728h-1.341c-.25.955-1.045 1.523-2.091 1.523-1.591 0-2.613-1.318-2.613-3.34 0-1.978 1.045-3.273 2.613-3.273 1.182 0 1.887.727 2.091 1.522h1.341c-.227-1.636-1.614-2.727-3.455-2.727-2.363 0-3.931 1.864-3.931 4.523 0 2.614 1.5 4.5 3.954 4.5zm8.938 0c2.363 0 3.954-1.796 3.954-4.5 0-2.728-1.591-4.523-3.954-4.523-2.364 0-3.955 1.795-3.955 4.523 0 2.704 1.591 4.5 3.955 4.5zm0-1.205c-1.796 0-2.614-1.545-2.614-3.295s.818-3.318 2.614-3.318c1.795 0 2.613 1.568 2.613 3.318s-.818 3.295-2.613 3.295zm11.501-2.545c0 1.636-1.25 2.386-2.25 2.386-1.113 0-1.909-.818-1.909-2.09v-5.455h-1.341v5.545c0 2.228 1.182 3.296 2.818 3.296 1.319 0 2.182-.705 2.591-1.591h.091V78h1.341v-8.727h-1.341v5.159zm5.138-1.682c0-1.523.943-2.386 2.227-2.386 1.245 0 2 .812 2 2.181V78h1.341v-5.546c0-2.227-1.187-3.295-2.954-3.295-1.319 0-2.137.591-2.546 1.477h-.114v-1.363h-1.295V78h1.341v-5.25zm11.814-3.477h-1.864v-2.091h-1.341v2.09h-1.318v1.137h1.318v5.455c0 1.522 1.228 2.25 2.364 2.25.5 0 .818-.091 1-.16l-.273-1.204c-.113.023-.295.068-.591.068-.591 0-1.159-.182-1.159-1.318v-5.09h1.864v-1.137zm8.042 1.954c-.42-1.238-1.363-2.068-3.09-2.068-1.841 0-3.205 1.045-3.205 2.523 0 1.204.716 2.011 2.318 2.386l1.455.341c.88.205 1.295.625 1.295 1.227 0 .75-.795 1.364-2.045 1.364-1.097 0-1.784-.472-2.023-1.41l-1.273.32c.313 1.482 1.534 2.272 3.318 2.272 2.029 0 3.41-1.108 3.41-2.614 0-1.216-.762-1.983-2.319-2.364l-1.295-.318c-1.034-.255-1.5-.602-1.5-1.272 0-.75.795-1.296 1.864-1.296 1.17 0 1.653.648 1.886 1.25l1.204-.34zM237.582 70h1.455c-.432-2.25-2.318-3.796-4.773-3.796-2.983 0-5.091 2.296-5.091 5.978s2.091 5.977 5.182 5.977c2.773 0 4.75-1.847 4.75-4.727v-1.25h-4.432v1.25h3.068c-.039 2.09-1.414 3.409-3.386 3.409-2.159 0-3.818-1.636-3.818-4.66 0-3.022 1.659-4.658 3.727-4.658 1.682 0 2.824.949 3.318 2.477zm3.755 8h1.341v-5.523c0-1.181.931-2.045 2.204-2.045a4.1 4.1 0 0 1 .818.09V69.16a12.815 12.815 0 0 0-.704-.023c-1.046 0-1.955.591-2.273 1.455h-.091v-1.318h-1.295V78zm8.521.204c1.523 0 2.318-.818 2.591-1.386h.068V78h1.341v-5.75c0-2.773-2.114-3.09-3.227-3.09-1.319 0-2.819.454-3.5 2.044l1.272.455c.296-.636.995-1.318 2.273-1.318 1.233 0 1.841.653 1.841 1.773v.045c0 .648-.659.591-2.25.795-1.619.21-3.386.569-3.386 2.569 0 1.704 1.318 2.681 2.977 2.681zm.204-1.204c-1.068 0-1.84-.477-1.84-1.41 0-1.022.931-1.34 1.977-1.476.568-.069 2.091-.228 2.318-.5v1.227c0 1.09-.864 2.159-2.455 2.159zm6.243 1h1.341v-5.454c0-1.279.932-2.182 1.978-2.182 1.017 0 1.727.664 1.727 1.659V78h1.363v-5.682c0-1.125.705-1.954 1.932-1.954.955 0 1.773.505 1.773 1.795V78h1.341v-5.84c0-2.052-1.102-3-2.659-3-1.25 0-2.165.573-2.614 1.476h-.091c-.432-.931-1.193-1.477-2.341-1.477-1.136 0-1.977.545-2.341 1.477h-.113v-1.363h-1.296V78zm13.907 0h1.341v-5.454c0-1.279.931-2.182 1.977-2.182 1.017 0 1.727.664 1.727 1.659V78h1.364v-5.682c0-1.125.704-1.954 1.932-1.954.954 0 1.772.505 1.772 1.795V78h1.341v-5.84c0-2.052-1.102-3-2.659-3-1.25 0-2.165.573-2.614 1.476h-.09c-.432-.931-1.194-1.477-2.341-1.477-1.137 0-1.978.545-2.341 1.477h-.114v-1.363h-1.295V78zm16.474.204c1.523 0 2.318-.818 2.591-1.386h.068V78h1.341v-5.75c0-2.773-2.114-3.09-3.227-3.09-1.318 0-2.818.454-3.5 2.044l1.273.455c.295-.636.994-1.318 2.272-1.318 1.233 0 1.841.653 1.841 1.773v.045c0 .648-.659.591-2.25.795-1.619.21-3.386.569-3.386 2.569 0 1.704 1.318 2.681 2.977 2.681zm.205-1.204c-1.069 0-1.841-.477-1.841-1.41 0-1.022.932-1.34 1.977-1.476.568-.069 2.091-.228 2.318-.5v1.227c0 1.09-.863 2.159-2.454 2.159zm6.243 1h1.34v-5.523c0-1.181.932-2.045 2.205-2.045a4.1 4.1 0 0 1 .818.09V69.16a12.849 12.849 0 0 0-.704-.023c-1.046 0-1.955.591-2.273 1.455h-.091v-1.318h-1.295V78zm7.294-11.636h-1.341V78h1.341V66.364zm3.319 14.909c1.21 0 2.063-.642 2.568-2l3.705-10h-1.455l-2.409 6.954h-.091l-2.409-6.954h-1.454l3.227 8.773-.25.681c-.489 1.33-1.091 1.455-2.068 1.205l-.341 1.182c.136.068.523.159.977.159zm13.884-8.523c0-1.523.971-2.386 2.295-2.386 1.262 0 2.023.795 2.023 2.181V78h1.341v-5.546c0-2.244-1.193-3.295-2.978-3.295-1.374 0-2.159.574-2.568 1.477h-.113v-4.272h-1.341V78h1.341v-5.25zm10.68 5.454c1.523 0 2.318-.818 2.591-1.386h.068V78h1.341v-5.75c0-2.773-2.114-3.09-3.227-3.09-1.318 0-2.818.454-3.5 2.044l1.273.455c.295-.636.994-1.318 2.272-1.318 1.233 0 1.841.653 1.841 1.773v.045c0 .648-.659.591-2.25.795-1.619.21-3.386.569-3.386 2.569 0 1.704 1.318 2.681 2.977 2.681zm.205-1.204c-1.069 0-1.841-.477-1.841-1.41 0-1.022.932-1.34 1.977-1.476.568-.069 2.091-.228 2.318-.5v1.227c0 1.09-.863 2.159-2.454 2.159zm12.424-5.773c-.42-1.238-1.363-2.068-3.091-2.068-1.84 0-3.204 1.045-3.204 2.523 0 1.204.716 2.011 2.318 2.386l1.455.341c.88.205 1.295.625 1.295 1.227 0 .75-.795 1.364-2.045 1.364-1.097 0-1.784-.472-2.023-1.41l-1.273.32c.313 1.482 1.534 2.272 3.318 2.272 2.029 0 3.409-1.108 3.409-2.614 0-1.216-.761-1.983-2.318-2.364l-1.295-.318c-1.034-.255-1.5-.602-1.5-1.272 0-.75.795-1.296 1.863-1.296 1.171 0 1.654.648 1.887 1.25l1.204-.34zM34.09 111.273c1.211 0 2.063-.642 2.57-2l3.704-10h-1.455l-2.409 6.954h-.09L34 99.273h-1.455l3.228 8.772-.25.682c-.489 1.33-1.091 1.455-2.069 1.205l-.34 1.182c.136.068.522.159.977.159zm11.276-3.091c2.364 0 3.955-1.796 3.955-4.5 0-2.727-1.59-4.523-3.954-4.523s-3.955 1.796-3.955 4.523c0 2.704 1.59 4.5 3.955 4.5zm0-1.205c-1.795 0-2.613-1.545-2.613-3.295s.818-3.318 2.614-3.318c1.795 0 2.613 1.568 2.613 3.318s-.818 3.295-2.613 3.295zm11.502-2.545c0 1.636-1.25 2.386-2.25 2.386-1.114 0-1.91-.818-1.91-2.091v-5.454h-1.34v5.545c0 2.227 1.182 3.296 2.818 3.296 1.318 0 2.182-.705 2.591-1.591h.09V108h1.342v-8.727h-1.341v5.159zM60.665 108h1.34v-5.523c0-1.182.932-2.045 2.205-2.045.358 0 .728.068.818.091v-1.364a12.855 12.855 0 0 0-.704-.023c-1.046 0-1.955.591-2.273 1.455h-.09v-1.318h-1.296V108zm10.635 0h1.295v-1.341h.16c.295.477.863 1.523 2.545 1.523 2.181 0 3.704-1.75 3.704-4.523 0-2.75-1.523-4.5-3.727-4.5-1.705 0-2.227 1.046-2.523 1.5h-.113v-4.295H71.3V108zm1.318-4.364c0-1.954.864-3.272 2.5-3.272 1.704 0 2.545 1.431 2.545 3.272 0 1.864-.863 3.341-2.545 3.341-1.614 0-2.5-1.363-2.5-3.341zm11.006 4.569c1.522 0 2.318-.819 2.59-1.387h.069V108h1.34v-5.75c0-2.773-2.113-3.09-3.227-3.09-1.318 0-2.818.454-3.5 2.045l1.273.454c.296-.636.994-1.318 2.273-1.318 1.233 0 1.84.653 1.84 1.773v.045c0 .648-.658.591-2.25.796-1.619.21-3.386.568-3.386 2.568 0 1.704 1.319 2.682 2.978 2.682zm.204-1.205c-1.068 0-1.84-.477-1.84-1.409 0-1.023.931-1.341 1.977-1.477.568-.069 2.09-.228 2.318-.5v1.227c0 1.091-.864 2.159-2.455 2.159zm9.788 1.182c1.932 0 3.205-1.182 3.432-2.727h-1.34c-.25.954-1.046 1.522-2.091 1.522-1.591 0-2.614-1.318-2.614-3.341 0-1.977 1.045-3.272 2.614-3.272 1.181 0 1.886.727 2.09 1.522h1.341c-.227-1.636-1.613-2.727-3.454-2.727-2.364 0-3.932 1.864-3.932 4.523 0 2.613 1.5 4.5 3.954 4.5zm5.392-.182h1.341v-3.267l.938-.869 3.267 4.136h1.705l-3.961-5 3.688-3.727h-1.659l-3.818 3.886h-.16v-6.795h-1.34V108zm9.681.091c.562 0 1.023-.46 1.023-1.023 0-.562-.461-1.023-1.023-1.023-.563 0-1.023.461-1.023 1.023 0 .563.46 1.023 1.023 1.023z" fill="#4D536E"/><g style="mix-blend-mode:multiply"><path fill="#FFDBE3" d="M223.845 58h-52v30h52z"/><path fill="#EA1537" d="M223.845 84.767h-52V88h52z"/></g></svg>