<svg width="380" height="87" viewBox="0 0 380 87" fill="none" xmlns="http://www.w3.org/2000/svg"><rect x=".845" width="379" height="87" rx="10" fill="#fff"/><path d="M60.085 36l.927-2.85h4.51l.927 2.85h2.831l-4.308-12.496h-3.404L57.254 36h2.83zm1.598-4.912l1.538-4.729h.098l1.537 4.73h-3.173zm12.07 5.065c1.513 0 2.3-.873 2.66-1.654h.11V36h2.563V23.504h-2.594v4.698h-.079c-.348-.763-1.098-1.696-2.666-1.696-2.057 0-3.796 1.598-3.796 4.82 0 3.136 1.666 4.827 3.802 4.827zm.823-2.069c-1.275 0-1.97-1.135-1.97-2.77 0-1.623.683-2.74 1.97-2.74 1.264 0 1.971 1.068 1.971 2.74 0 1.672-.72 2.77-1.97 2.77zm10.1 2.069c1.514 0 2.3-.873 2.66-1.654h.11V36h2.563V23.504h-2.593v4.698h-.08c-.347-.763-1.098-1.696-2.666-1.696-2.056 0-3.795 1.598-3.795 4.82 0 3.136 1.666 4.827 3.801 4.827zm.824-2.069c-1.275 0-1.97-1.135-1.97-2.77 0-1.623.683-2.74 1.97-2.74 1.263 0 1.971 1.068 1.971 2.74 0 1.672-.72 2.77-1.97 2.77zm10.623 5.43h2.6V34.5h.079c.36.781 1.147 1.654 2.66 1.654 2.136 0 3.802-1.69 3.802-4.827 0-3.222-1.739-4.82-3.796-4.82-1.568 0-2.318.933-2.666 1.696h-.116v-1.574h-2.563v12.887zm2.545-8.2c0-1.672.707-2.74 1.971-2.74 1.287 0 1.97 1.117 1.97 2.74 0 1.635-.695 2.77-1.97 2.77-1.251 0-1.971-1.098-1.971-2.77zm14.339.696c.006 1.256-.854 1.915-1.788 1.915-.982 0-1.617-.69-1.623-1.793v-5.504h-2.599v5.967c.006 2.19 1.287 3.527 3.172 3.527 1.41 0 2.423-.726 2.844-1.824h.098V36h2.495v-9.372h-2.599v5.382zm7.278-1.428c.006-1.209.726-1.916 1.775-1.916 1.044 0 1.672.683 1.666 1.83V36h2.599v-5.968c0-2.184-1.281-3.526-3.234-3.526-1.391 0-2.398.683-2.819 1.775h-.109v-1.653h-2.478V36h2.6v-5.418zm12.324 5.601c2.495 0 4.063-1.464 4.185-3.618h-2.452c-.153 1-.812 1.562-1.703 1.562-1.214 0-2.001-1.02-2.001-2.813 0-1.77.793-2.782 2.001-2.782.952 0 1.562.628 1.703 1.561h2.452c-.109-2.166-1.751-3.587-4.198-3.587-2.843 0-4.6 1.97-4.6 4.845 0 2.849 1.727 4.832 4.613 4.832zm10.835-9.555h-1.764v-2.246h-2.599v2.246H137.8v1.952h1.281v4.882c-.012 1.836 1.239 2.745 3.124 2.666a5.068 5.068 0 0 0 1.41-.244l-.409-1.934c-.128.024-.403.085-.647.085-.519 0-.879-.195-.879-.915v-4.54h1.764v-1.952zm7.703 5.382c.006 1.256-.854 1.915-1.787 1.915-.983 0-1.617-.69-1.624-1.793v-5.504h-2.599v5.967c.006 2.19 1.288 3.527 3.173 3.527 1.41 0 2.422-.726 2.843-1.824h.098V36h2.496v-9.372h-2.6v5.382zm7.351 4.167c1.386 0 2.282-.604 2.74-1.477h.073V36h2.465v-6.321c0-2.234-1.891-3.173-3.978-3.173-2.245 0-3.722 1.074-4.082 2.782l2.404.195c.177-.622.732-1.08 1.666-1.08.885 0 1.391.446 1.391 1.215v.036c0 .604-.641.684-2.27.842-1.855.171-3.52.793-3.52 2.886 0 1.855 1.324 2.795 3.111 2.795zm.745-1.794c-.799 0-1.373-.372-1.373-1.086 0-.732.604-1.092 1.519-1.22.568-.08 1.495-.214 1.806-.421v.994c0 .983-.811 1.733-1.952 1.733zm11.535-7.755h-1.763v-2.246h-2.6v2.246h-1.281v1.952h1.281v4.882c-.012 1.836 1.239 2.745 3.125 2.666a5.051 5.051 0 0 0 1.409-.244l-.409-1.934c-.128.024-.402.085-.647.085-.518 0-.878-.195-.878-.915v-4.54h1.763v-1.952zM172.471 36h2.6v-9.372h-2.6V36zm1.306-10.58c.775 0 1.41-.592 1.41-1.318 0-.72-.635-1.312-1.41-1.312-.769 0-1.403.592-1.403 1.312 0 .726.634 1.318 1.403 1.318zm7.611 10.763c2.843 0 4.613-1.946 4.613-4.832 0-2.905-1.77-4.845-4.613-4.845-2.844 0-4.613 1.94-4.613 4.845 0 2.886 1.769 4.832 4.613 4.832zm.012-2.014c-1.312 0-1.983-1.202-1.983-2.837 0-1.635.671-2.843 1.983-2.843 1.287 0 1.959 1.208 1.959 2.843s-.672 2.837-1.959 2.837zm8.89-3.587c.006-1.209.726-1.916 1.776-1.916 1.043 0 1.672.683 1.665 1.83V36h2.6v-5.968c0-2.184-1.282-3.526-3.234-3.526-1.391 0-2.398.683-2.819 1.775h-.11v-1.653h-2.477V36h2.599v-5.418z" fill="#0E101A"/><path d="M61.97 65.195c2.075 0 3.442-1.269 3.686-2.929h-1.44c-.269 1.026-1.123 1.636-2.246 1.636-1.708 0-2.807-1.416-2.807-3.588 0-2.124 1.123-3.515 2.807-3.515 1.27 0 2.026.781 2.246 1.636h1.44c-.244-1.758-1.733-2.93-3.71-2.93-2.538 0-4.223 2.002-4.223 4.858 0 2.806 1.611 4.832 4.247 4.832zm9.598 0c2.539 0 4.247-1.928 4.247-4.832 0-2.93-1.708-4.857-4.247-4.857-2.538 0-4.247 1.928-4.247 4.857 0 2.904 1.709 4.832 4.247 4.832zm0-1.293c-1.928 0-2.806-1.66-2.806-3.54 0-1.879.878-3.563 2.806-3.563s2.807 1.684 2.807 3.564c0 1.879-.879 3.539-2.807 3.539zm12.352-2.734c0 1.757-1.343 2.563-2.417 2.563-1.195 0-2.05-.879-2.05-2.246v-5.857h-1.44v5.955c0 2.392 1.27 3.539 3.027 3.539 1.415 0 2.343-.757 2.782-1.709h.098V65h1.44v-9.372h-1.44v5.54zm5.517-1.806c0-1.635 1.013-2.563 2.392-2.563 1.336 0 2.148.873 2.148 2.343V65h1.44v-5.955c0-2.392-1.275-3.54-3.173-3.54-1.416 0-2.294.635-2.734 1.587h-.122v-1.464h-1.39V65h1.44v-5.638zm12.687-3.734h-2.001v-2.246h-1.44v2.246h-1.416v1.22h1.416v5.858c0 1.635 1.318 2.416 2.538 2.416.537 0 .879-.098 1.074-.17l-.293-1.294c-.122.024-.317.073-.634.073-.635 0-1.245-.195-1.245-1.416v-5.467h2.001v-1.22zm8.637 2.099c-.451-1.33-1.464-2.221-3.319-2.221-1.977 0-3.441 1.122-3.441 2.709 0 1.293.768 2.16 2.489 2.563l1.562.366c.946.22 1.391.67 1.391 1.318 0 .805-.854 1.464-2.196 1.464-1.178 0-1.916-.506-2.172-1.513l-1.367.342c.335 1.592 1.647 2.44 3.563 2.44 2.178 0 3.661-1.19 3.661-2.807 0-1.305-.817-2.13-2.489-2.538l-1.392-.342c-1.11-.274-1.61-.646-1.61-1.366 0-.806.854-1.392 2.001-1.392 1.257 0 1.776.696 2.026 1.343l1.293-.366zM125.853 65l5.467-5.467-5.467-5.467-.94.94 3.868 3.856h-10.019v1.342h10.019l-3.868 3.869.94.927z" fill="#6D758D"/><path d="M142.966 65.195c2.075 0 3.442-1.269 3.686-2.929h-1.44c-.269 1.026-1.123 1.636-2.246 1.636-1.708 0-2.806-1.416-2.806-3.588 0-2.124 1.122-3.515 2.806-3.515 1.27 0 2.026.781 2.246 1.636h1.44c-.244-1.758-1.733-2.93-3.71-2.93-2.538 0-4.222 2.002-4.222 4.858 0 2.806 1.61 4.832 4.246 4.832zm9.598 0c2.539 0 4.247-1.928 4.247-4.832 0-2.93-1.708-4.857-4.247-4.857-2.538 0-4.246 1.928-4.246 4.857 0 2.904 1.708 4.832 4.246 4.832zm0-1.293c-1.928 0-2.806-1.66-2.806-3.54 0-1.879.878-3.563 2.806-3.563 1.929 0 2.807 1.684 2.807 3.564 0 1.879-.878 3.539-2.807 3.539zm12.352-2.734c0 1.757-1.342 2.563-2.416 2.563-1.196 0-2.051-.879-2.051-2.246v-5.857h-1.44v5.955c0 2.392 1.27 3.539 3.027 3.539 1.416 0 2.343-.757 2.782-1.709h.098V65h1.44v-9.372h-1.44v5.54zm5.517-1.806c0-1.635 1.013-2.563 2.392-2.563 1.337 0 2.148.873 2.148 2.343V65h1.44v-5.955c0-2.392-1.275-3.54-3.173-3.54-1.415 0-2.294.635-2.733 1.587h-.122v-1.464h-1.392V65h1.44v-5.638zm12.688-3.734h-2.002v-2.246h-1.44v2.246h-1.415v1.22h1.415v5.858c0 1.635 1.318 2.416 2.538 2.416.537 0 .879-.098 1.074-.17l-.292-1.294c-.123.024-.318.073-.635.073-.635 0-1.245-.195-1.245-1.416v-5.467h2.002v-1.22zm8.637 2.099c-.452-1.33-1.465-2.221-3.32-2.221-1.977 0-3.441 1.122-3.441 2.709 0 1.293.769 2.16 2.489 2.563l1.562.366c.946.22 1.392.67 1.392 1.318 0 .805-.855 1.464-2.197 1.464-1.178 0-1.916-.506-2.172-1.513l-1.367.342c.336 1.592 1.647 2.44 3.563 2.44 2.179 0 3.661-1.19 3.661-2.807 0-1.305-.817-2.13-2.489-2.538l-1.391-.342c-1.111-.274-1.611-.646-1.611-1.366 0-.806.854-1.392 2.001-1.392 1.257 0 1.776.696 2.026 1.343l1.294-.366zm4.883 5.565h-2.148l-.031.683c-.073 1.66-.549 3.362-.726 4.076h1.684c.293-.738.989-2.471 1.153-4.088l.068-.672z" fill="#11A683"/><path d="M57.265 60.284h55.08" stroke="#9FA6BF" stroke-width="1.145"/><path fill-rule="evenodd" clip-rule="evenodd" d="M25.845 24.235L32.662 22l6.818 2.235v5.964a8.64 8.64 0 0 1-3.164 6.683l-3.654 2.994-3.653-2.994a8.64 8.64 0 0 1-3.164-6.683v-5.965z" fill="#FFC8D2"/><mask id="a" maskUnits="userSpaceOnUse" x="25" y="22" width="15" height="18"><path fill-rule="evenodd" clip-rule="evenodd" d="M25.845 24.235L32.662 22l6.818 2.235v5.964a8.64 8.64 0 0 1-3.164 6.683l-3.654 2.994-3.653-2.994a8.64 8.64 0 0 1-3.164-6.683v-5.965z" fill="#fff"/></mask><g filter="url(#filter0_d)" mask="url(#a)"><path fill="#EE445F" d="M23.897 22h8.765v18.869h-8.765z"/></g><defs><filter id="filter0_d" x="18.897" y="17" width="18.765" height="28.869" filterUnits="userSpaceOnUse" color-interpolation-filters="sRGB"><feFlood flood-opacity="0" result="BackgroundImageFix"/><feColorMatrix in="SourceAlpha" values="0 0 0 0 0 0 0 0 0 0 0 0 0 0 0 0 0 0 127 0"/><feOffset/><feGaussianBlur stdDeviation="2.5"/><feColorMatrix values="0 0 0 0 1 0 0 0 0 1 0 0 0 0 1 0 0 0 1 0"/><feBlend in2="BackgroundImageFix" result="effect1_dropShadow"/><feBlend in="SourceGraphic" in2="effect1_dropShadow" result="shape"/></filter></defs></svg>