<svg width="388" height="250" viewBox="0 0 388 250" fill="none" xmlns="http://www.w3.org/2000/svg"><path d="M388 10c0-5.523-4.477-10-10-10H10C4.477 0 0 4.477 0 10v230c0 5.523 4.477 10 10 10h368c5.523 0 10-4.477 10-10V10z" fill="#fff"/><path d="M34.818 66.364H33.41V78h1.41V66.364zm6.53 2.909h-1.954v-.887c0-.863.363-1.318 1.25-1.318.386 0 .613.091.75.136l.386-1.158c-.205-.092-.614-.228-1.273-.228-1.25 0-2.454.75-2.454 2.25v1.205h-1.41v1.136h1.41V78h1.34v-7.59h1.955v-1.137zm7.243 12c1.21 0 2.062-.642 2.568-2l3.716-9.977-1.466-.023L51 76.227h-.09l-2.41-6.954h-1.455l3.228 8.773-.25.681c-.489 1.33-1.091 1.455-2.069 1.205l-.34 1.182c.136.068.522.159.977.159zm11.291-3.091c2.364 0 3.955-1.796 3.955-4.5 0-2.728-1.591-4.523-3.955-4.523-2.363 0-3.954 1.795-3.954 4.523 0 2.704 1.59 4.5 3.954 4.5zm0-1.205c-1.795 0-2.613-1.545-2.613-3.295s.818-3.318 2.613-3.318c1.796 0 2.614 1.568 2.614 3.318s-.818 3.295-2.614 3.295zm11.502-2.545c0 1.636-1.25 2.386-2.25 2.386-1.114 0-1.91-.818-1.91-2.09v-5.455h-1.34v5.545c0 2.228 1.181 3.296 2.818 3.296 1.318 0 2.181-.705 2.59-1.591h.091V78h1.341v-8.727h-1.34v5.159zm9.637-1.682c0-1.523.972-2.386 2.296-2.386 1.261 0 2.023.795 2.023 2.181V78h1.34v-5.546c0-2.244-1.193-3.295-2.977-3.295-1.375 0-2.159.574-2.568 1.477h-.114v-4.272h-1.34V78h1.34v-5.25zm10.68 5.454c1.523 0 2.319-.818 2.592-1.386h.068V78h1.34v-5.75c0-2.773-2.113-3.09-3.227-3.09-1.318 0-2.818.454-3.5 2.044l1.273.455c.296-.636.995-1.318 2.273-1.318 1.233 0 1.84.653 1.84 1.773v.045c0 .648-.658.591-2.25.795-1.618.21-3.386.569-3.386 2.569 0 1.704 1.319 2.681 2.978 2.681zM91.907 77c-1.068 0-1.84-.477-1.84-1.41 0-1.022.931-1.34 1.977-1.476.568-.069 2.09-.228 2.318-.5v1.227c0 1.09-.864 2.159-2.455 2.159zm13.067-7.727h-1.455l-2.409 6.954h-.091l-2.409-6.954h-1.454L100.382 78h1.364l3.227-8.727zm5.116 8.909c1.773 0 3.069-.886 3.478-2.205l-1.296-.363c-.341.909-1.13 1.363-2.182 1.363-1.573 0-2.659-1.017-2.721-2.886h6.335v-.568c0-3.25-1.932-4.364-3.75-4.364-2.364 0-3.932 1.864-3.932 4.545 0 2.682 1.546 4.478 4.068 4.478zm-2.721-5.25c.091-1.358 1.051-2.568 2.585-2.568 1.455 0 2.386 1.09 2.386 2.568h-4.971zm15.443 5.272c1.523 0 2.318-.818 2.591-1.386h.068V78h1.341v-5.75c0-2.773-2.114-3.09-3.227-3.09-1.318 0-2.818.454-3.5 2.044l1.273.455c.295-.636.994-1.318 2.272-1.318 1.233 0 1.841.653 1.841 1.773v.045c0 .648-.659.591-2.25.795-1.619.21-3.386.569-3.386 2.569 0 1.704 1.318 2.681 2.977 2.681zm.205-1.204c-1.069 0-1.841-.477-1.841-1.41 0-1.022.932-1.34 1.977-1.476.568-.069 2.091-.228 2.318-.5v1.227c0 1.09-.863 2.159-2.454 2.159zm7.583-4.25c0-1.523.944-2.386 2.228-2.386 1.244 0 2 .812 2 2.181V78h1.341v-5.546c0-2.227-1.188-3.295-2.955-3.295-1.318 0-2.136.591-2.545 1.477h-.114v-1.363h-1.295V78h1.34v-5.25zm8.57 8.523c1.21 0 2.063-.642 2.568-2l3.716-9.977-1.466-.023-2.409 6.954h-.091l-2.409-6.954h-1.454l3.227 8.773-.25.681c-.489 1.33-1.091 1.455-2.068 1.205l-.341 1.182c.136.068.522.159.977.159zm19.854 0v-12h-1.296v1.386h-.159c-.295-.455-.818-1.5-2.523-1.5-2.204 0-3.727 1.75-3.727 4.5 0 2.773 1.523 4.523 3.705 4.523 1.682 0 2.25-1.046 2.545-1.523h.114v4.614h1.341zm-1.318-7.637c0 1.978-.887 3.341-2.5 3.341-1.682 0-2.546-1.477-2.546-3.34 0-1.841.841-3.273 2.546-3.273 1.636 0 2.5 1.318 2.5 3.272zm9.272.796c0 1.636-1.25 2.386-2.25 2.386-1.113 0-1.909-.818-1.909-2.09v-5.455h-1.341v5.545c0 2.228 1.182 3.296 2.818 3.296 1.319 0 2.182-.705 2.591-1.591h.091V78h1.341v-8.727h-1.341v5.159zm7.456 3.75c1.773 0 3.068-.886 3.478-2.205l-1.296-.363c-.341.909-1.131 1.363-2.182 1.363-1.574 0-2.659-1.017-2.721-2.886h6.335v-.568c0-3.25-1.932-4.364-3.75-4.364-2.364 0-3.932 1.864-3.932 4.545 0 2.682 1.546 4.478 4.068 4.478zm-2.721-5.25c.091-1.358 1.051-2.568 2.585-2.568 1.454 0 2.386 1.09 2.386 2.568h-4.971zm14.556-1.705c-.42-1.238-1.363-2.068-3.09-2.068-1.841 0-3.205 1.045-3.205 2.523 0 1.204.716 2.011 2.318 2.386l1.455.341c.88.205 1.295.625 1.295 1.227 0 .75-.795 1.364-2.045 1.364-1.097 0-1.784-.472-2.023-1.41l-1.273.32c.313 1.482 1.534 2.272 3.318 2.272 2.029 0 3.41-1.108 3.41-2.614 0-1.216-.762-1.983-2.319-2.364l-1.295-.318c-1.034-.255-1.5-.602-1.5-1.272 0-.75.795-1.296 1.864-1.296 1.17 0 1.653.648 1.886 1.25l1.204-.34zm5.973-1.954h-1.863v-2.091h-1.341v2.09h-1.318v1.137h1.318v5.455c0 1.522 1.227 2.25 2.364 2.25.5 0 .818-.091 1-.16l-.273-1.204c-.114.023-.296.068-.591.068-.591 0-1.159-.182-1.159-1.318v-5.09h1.863v-1.137zM194.259 78h1.34v-8.727h-1.34V78zm.681-10.182c.523 0 .955-.409.955-.909s-.432-.909-.955-.909c-.522 0-.954.41-.954.91s.432.908.954.908zm6.661 10.364c2.363 0 3.954-1.796 3.954-4.5 0-2.728-1.591-4.523-3.954-4.523-2.364 0-3.955 1.795-3.955 4.523 0 2.704 1.591 4.5 3.955 4.5zm0-1.205c-1.796 0-2.614-1.545-2.614-3.295s.818-3.318 2.614-3.318c1.795 0 2.613 1.568 2.613 3.318s-.818 3.295-2.613 3.295zm7.342-4.227c0-1.523.943-2.386 2.227-2.386 1.245 0 2 .812 2 2.181V78h1.341v-5.546c0-2.227-1.187-3.295-2.954-3.295-1.318 0-2.137.591-2.546 1.477h-.113v-1.363h-1.296V78h1.341v-5.25zm14.2-1.523c-.42-1.238-1.363-2.068-3.09-2.068-1.841 0-3.205 1.045-3.205 2.523 0 1.204.716 2.011 2.318 2.386l1.455.341c.88.205 1.295.625 1.295 1.227 0 .75-.795 1.364-2.045 1.364-1.097 0-1.784-.472-2.023-1.41l-1.273.32c.313 1.482 1.534 2.272 3.318 2.272 2.029 0 3.41-1.108 3.41-2.614 0-1.216-.762-1.983-2.319-2.364l-1.295-.318c-1.034-.255-1.5-.602-1.5-1.272 0-.75.795-1.296 1.864-1.296 1.17 0 1.653.648 1.886 1.25l1.204-.34zm9.246 6.977c1.523 0 2.318-.818 2.591-1.386h.068V78h1.341v-5.75c0-2.773-2.113-3.09-3.227-3.09-1.318 0-2.818.454-3.5 2.044l1.273.455c.295-.636.994-1.318 2.272-1.318 1.233 0 1.841.653 1.841 1.773v.045c0 .648-.659.591-2.25.795-1.619.21-3.386.569-3.386 2.569 0 1.704 1.318 2.681 2.977 2.681zm.205-1.204c-1.068 0-1.841-.477-1.841-1.41 0-1.022.932-1.34 1.977-1.476.568-.069 2.091-.228 2.318-.5v1.227c0 1.09-.863 2.159-2.454 2.159zm6.424 1h1.296v-1.34h.159c.295.476.864 1.522 2.545 1.522 2.182 0 3.705-1.75 3.705-4.523 0-2.75-1.523-4.5-3.727-4.5-1.705 0-2.228 1.045-2.523 1.5h-.114v-4.295h-1.341V78zm1.319-4.364c0-1.954.863-3.272 2.5-3.272 1.704 0 2.545 1.431 2.545 3.272 0 1.864-.864 3.341-2.545 3.341-1.614 0-2.5-1.363-2.5-3.34zm11.983 4.546c2.363 0 3.954-1.796 3.954-4.5 0-2.728-1.591-4.523-3.954-4.523-2.364 0-3.955 1.795-3.955 4.523 0 2.704 1.591 4.5 3.955 4.5zm0-1.205c-1.796 0-2.614-1.545-2.614-3.295s.818-3.318 2.614-3.318c1.795 0 2.613 1.568 2.613 3.318s-.818 3.295-2.613 3.295zm11.501-2.545c0 1.636-1.25 2.386-2.25 2.386-1.114 0-1.909-.818-1.909-2.09v-5.455h-1.341v5.545c0 2.228 1.182 3.296 2.818 3.296 1.318 0 2.182-.705 2.591-1.591h.091V78h1.341v-8.727h-1.341v5.159zm7.592-5.16h-1.863v-2.09h-1.341v2.09h-1.318v1.137h1.318v5.455c0 1.522 1.227 2.25 2.363 2.25.5 0 .819-.091 1-.16l-.272-1.204c-.114.023-.296.068-.591.068-.591 0-1.159-.182-1.159-1.318v-5.09h1.863v-1.137zM277.93 78h1.341v-5.454c0-1.279.932-2.182 1.978-2.182 1.017 0 1.727.664 1.727 1.659V78h1.363v-5.682c0-1.125.705-1.954 1.932-1.954.955 0 1.773.505 1.773 1.795V78h1.341v-5.84c0-2.052-1.102-3-2.659-3-1.25 0-2.165.573-2.614 1.476h-.091c-.432-.931-1.193-1.477-2.341-1.477-1.136 0-1.977.545-2.341 1.477h-.113v-1.363h-1.296V78zm14.458 3.273c1.21 0 2.062-.642 2.568-2l3.716-9.977-1.466-.023-2.409 6.954h-.091l-2.409-6.954h-1.455l3.228 8.773-.25.681c-.489 1.33-1.091 1.455-2.069 1.205l-.34 1.182c.136.068.522.159.977.159zM304.946 78h1.341v-5.523c0-1.181.932-2.045 2.204-2.045.358 0 .728.068.819.09V69.16a12.887 12.887 0 0 0-.705-.023c-1.045 0-1.954.591-2.273 1.455h-.091v-1.318h-1.295V78zm8.521.204c1.523 0 2.319-.818 2.591-1.386h.068V78h1.341v-5.75c0-2.773-2.113-3.09-3.227-3.09-1.318 0-2.818.454-3.5 2.044l1.273.455c.295-.636.994-1.318 2.273-1.318 1.232 0 1.84.653 1.84 1.773v.045c0 .648-.659.591-2.25.795-1.619.21-3.386.569-3.386 2.569 0 1.704 1.318 2.681 2.977 2.681zm.205-1.204c-1.068 0-1.841-.477-1.841-1.41 0-1.022.932-1.34 1.977-1.476.568-.069 2.091-.228 2.318-.5v1.227c0 1.09-.863 2.159-2.454 2.159zm10.038-7.727h-1.863v-2.091h-1.341v2.09h-1.318v1.137h1.318v5.455c0 1.522 1.227 2.25 2.363 2.25.5 0 .819-.091 1-.16l-.272-1.204c-.114.023-.296.068-.591.068-.591 0-1.159-.182-1.159-1.318v-5.09h1.863v-1.137zm5.583 8.909c1.772 0 3.068-.886 3.477-2.205l-1.296-.363c-.34.909-1.13 1.363-2.181 1.363-1.574 0-2.659-1.017-2.722-2.886h6.335v-.568c0-3.25-1.932-4.364-3.75-4.364-2.363 0-3.932 1.864-3.932 4.545 0 2.682 1.546 4.478 4.069 4.478zm-2.722-5.25c.091-1.358 1.051-2.568 2.585-2.568 1.455 0 2.387 1.09 2.387 2.568h-4.972zm16.42 5.25c2.364 0 3.955-1.796 3.955-4.5 0-2.728-1.591-4.523-3.955-4.523-2.363 0-3.954 1.795-3.954 4.523 0 2.704 1.591 4.5 3.954 4.5zm0-1.205c-1.795 0-2.613-1.545-2.613-3.295s.818-3.318 2.613-3.318c1.796 0 2.614 1.568 2.614 3.318s-.818 3.295-2.614 3.295zM348.993 78h1.341v-5.523c0-1.181.932-2.045 2.204-2.045.358 0 .728.068.819.09V69.16a12.887 12.887 0 0 0-.705-.023c-1.045 0-1.955.591-2.273 1.455h-.091v-1.318h-1.295V78zM33.227 108h1.341v-8.727h-1.34V108zm.682-10.182c.523 0 .955-.409.955-.909S34.432 96 33.909 96c-.523 0-.954.41-.954.91s.431.908.954.908zm7.002 1.455h-1.955v-.887c0-.863.364-1.318 1.25-1.318.386 0 .614.091.75.136l.386-1.158c-.204-.092-.613-.228-1.272-.228-1.25 0-2.455.75-2.455 2.25v1.205h-1.409v1.136h1.41V108h1.34v-7.591h1.954v-1.136zm7.242 12c1.21 0 2.063-.642 2.569-2l3.715-9.977-1.465-.023-2.41 6.954h-.09l-2.41-6.954h-1.454l3.227 8.772-.25.682c-.488 1.33-1.09 1.455-2.068 1.205l-.34 1.182c.136.068.522.159.976.159zm11.292-3.091c2.363 0 3.954-1.796 3.954-4.5 0-2.727-1.59-4.523-3.954-4.523s-3.955 1.796-3.955 4.523c0 2.704 1.591 4.5 3.955 4.5zm0-1.205c-1.796 0-2.614-1.545-2.614-3.295s.818-3.318 2.614-3.318c1.795 0 2.613 1.568 2.613 3.318s-.818 3.295-2.613 3.295zm11.501-2.545c0 1.636-1.25 2.386-2.25 2.386-1.114 0-1.91-.818-1.91-2.091v-5.454h-1.34v5.545c0 2.227 1.182 3.296 2.818 3.296 1.318 0 2.182-.705 2.591-1.591h.091V108h1.34v-8.727h-1.34v5.159zm12.183-5.16h-1.954v-.886c0-.863.363-1.318 1.25-1.318.386 0 .613.091.75.136l.386-1.158c-.205-.092-.614-.228-1.273-.228-1.25 0-2.454.75-2.454 2.25v1.205h-1.41v1.136h1.41V108h1.34v-7.591h1.955v-1.136zM85.01 108h1.34v-8.727h-1.34V108zm.681-10.182c.523 0 .955-.409.955-.909S86.213 96 85.69 96c-.522 0-.954.41-.954.91s.432.908.954.908zm4.456 4.932c0-1.523.944-2.386 2.228-2.386 1.244 0 2 .812 2 2.181V108h1.34v-5.545c0-2.228-1.187-3.296-2.954-3.296-1.318 0-2.136.591-2.546 1.477h-.113v-1.363h-1.296V108h1.341v-5.25zm11.314 5.432c1.682 0 2.25-1.046 2.546-1.523h.159V108h1.295V96.364h-1.341v4.295h-.113c-.296-.454-.818-1.5-2.523-1.5-2.205 0-3.727 1.75-3.727 4.5 0 2.773 1.522 4.523 3.704 4.523zm.182-1.205c-1.682 0-2.545-1.477-2.545-3.341 0-1.841.84-3.272 2.545-3.272 1.636 0 2.5 1.318 2.5 3.272 0 1.978-.886 3.341-2.5 3.341zm10.96 1.023h1.341v-8.727h-1.341V108zm.682-10.182c.523 0 .955-.409.955-.909s-.432-.909-.955-.909c-.523 0-.954.41-.954.91s.431.908.954.908zm6.911 1.455h-1.864v-2.091h-1.341v2.09h-1.318v1.137h1.318v5.455c0 1.522 1.227 2.25 2.364 2.25.5 0 .818-.091 1-.159l-.273-1.205c-.114.023-.295.068-.591.068-.591 0-1.159-.182-1.159-1.318v-5.091h1.864v-1.136zm7.858 3.477c0-1.523.943-2.386 2.227-2.386 1.244 0 2 .812 2 2.181V108h1.341v-5.545c0-2.228-1.188-3.296-2.955-3.296-1.318 0-2.136.591-2.545 1.477h-.114v-1.363h-1.295V108h1.341v-5.25zm11.677 5.432c1.773 0 3.068-.887 3.477-2.205l-1.295-.363c-.341.909-1.131 1.363-2.182 1.363-1.574 0-2.659-1.017-2.721-2.886h6.335v-.568c0-3.25-1.932-4.364-3.75-4.364-2.364 0-3.932 1.864-3.932 4.546 0 2.681 1.545 4.477 4.068 4.477zm-2.721-5.25c.09-1.358 1.051-2.568 2.585-2.568 1.454 0 2.386 1.091 2.386 2.568h-4.971zm11.92 5.25c1.932 0 3.205-1.182 3.432-2.727h-1.341c-.25.954-1.046 1.522-2.091 1.522-1.591 0-2.614-1.318-2.614-3.341 0-1.977 1.046-3.272 2.614-3.272 1.182 0 1.886.727 2.091 1.522h1.341c-.227-1.636-1.614-2.727-3.455-2.727-2.363 0-3.932 1.864-3.932 4.523 0 2.613 1.5 4.5 3.955 4.5zm9.051 0c1.773 0 3.068-.887 3.477-2.205l-1.295-.363c-.341.909-1.131 1.363-2.182 1.363-1.574 0-2.659-1.017-2.721-2.886h6.335v-.568c0-3.25-1.932-4.364-3.75-4.364-2.364 0-3.932 1.864-3.932 4.546 0 2.681 1.545 4.477 4.068 4.477zm-2.721-5.25c.09-1.358 1.051-2.568 2.585-2.568 1.454 0 2.386 1.091 2.386 2.568h-4.971zm14.556-1.705c-.42-1.238-1.363-2.068-3.091-2.068-1.84 0-3.204 1.046-3.204 2.523 0 1.204.716 2.011 2.318 2.386l1.455.341c.88.205 1.295.625 1.295 1.227 0 .75-.795 1.364-2.045 1.364-1.097 0-1.784-.472-2.023-1.409l-1.273.318c.313 1.483 1.534 2.273 3.318 2.273 2.029 0 3.409-1.108 3.409-2.614 0-1.216-.761-1.983-2.318-2.363l-1.295-.319c-1.034-.255-1.5-.602-1.5-1.272 0-.75.795-1.296 1.863-1.296 1.171 0 1.654.648 1.887 1.25l1.204-.341zm8.36 0c-.421-1.238-1.364-2.068-3.091-2.068-1.841 0-3.205 1.046-3.205 2.523 0 1.204.716 2.011 2.318 2.386l1.455.341c.881.205 1.295.625 1.295 1.227 0 .75-.795 1.364-2.045 1.364-1.097 0-1.784-.472-2.023-1.409l-1.272.318c.312 1.483 1.534 2.273 3.318 2.273 2.028 0 3.409-1.108 3.409-2.614 0-1.216-.762-1.983-2.318-2.363l-1.296-.319c-1.034-.255-1.5-.602-1.5-1.272 0-.75.796-1.296 1.864-1.296 1.17 0 1.653.648 1.886 1.25l1.205-.341zm4.745 6.978c1.523 0 2.319-.819 2.591-1.387h.069V108h1.34v-5.75c0-2.773-2.113-3.09-3.227-3.09-1.318 0-2.818.454-3.5 2.045l1.273.454c.295-.636.994-1.318 2.273-1.318 1.233 0 1.841.653 1.841 1.773v.045c0 .648-.66.591-2.25.796-1.62.21-3.387.568-3.387 2.568 0 1.704 1.318 2.682 2.977 2.682zm.205-1.205c-1.068 0-1.841-.477-1.841-1.409 0-1.023.932-1.341 1.977-1.477.569-.069 2.091-.228 2.319-.5v1.227c0 1.091-.864 2.159-2.455 2.159zm6.243 1h1.341v-5.523c0-1.182.932-2.045 2.204-2.045.358 0 .728.068.819.091v-1.364a12.887 12.887 0 0 0-.705-.023c-1.045 0-1.955.591-2.273 1.455h-.091v-1.318h-1.295V108zm7.082 3.273c1.211 0 2.063-.642 2.568-2l3.716-9.977-1.466-.023-2.409 6.954h-.091l-2.409-6.954h-1.454l3.227 8.772-.25.682c-.489 1.33-1.091 1.455-2.068 1.205l-.341 1.182c.136.068.523.159.977.159zm16.354-12h-1.864v-2.091H209.6v2.09h-1.318v1.137h1.318v5.455c0 1.522 1.228 2.25 2.364 2.25.5 0 .818-.091 1-.159l-.273-1.205c-.113.023-.295.068-.591.068-.59 0-1.159-.182-1.159-1.318v-5.091h1.864v-1.136zm5.469 8.909c2.363 0 3.954-1.796 3.954-4.5 0-2.727-1.591-4.523-3.954-4.523-2.364 0-3.955 1.796-3.955 4.523 0 2.704 1.591 4.5 3.955 4.5zm0-1.205c-1.796 0-2.614-1.545-2.614-3.295s.818-3.318 2.614-3.318c1.795 0 2.613 1.568 2.613 3.318s-.818 3.295-2.613 3.295zm10.5 1.023h1.341v-8.727h-1.341V108zm.682-10.182c.523 0 .955-.409.955-.909s-.432-.909-.955-.909c-.523 0-.955.41-.955.91s.432.908.955.908zm4.456 4.932c0-1.523.943-2.386 2.227-2.386 1.245 0 2 .812 2 2.181V108h1.341v-5.545c0-2.228-1.187-3.296-2.954-3.296-1.319 0-2.137.591-2.546 1.477h-.114v-1.363h-1.295V108h1.341v-5.25zm11.564 5.432c1.932 0 3.204-1.182 3.432-2.727h-1.341c-.25.954-1.046 1.522-2.091 1.522-1.591 0-2.614-1.318-2.614-3.341 0-1.977 1.046-3.272 2.614-3.272 1.182 0 1.886.727 2.091 1.522h1.341c-.228-1.636-1.614-2.727-3.455-2.727-2.364 0-3.932 1.864-3.932 4.523 0 2.613 1.5 4.5 3.955 4.5zm5.392-.182h1.341v-5.523c0-1.182.932-2.045 2.204-2.045.358 0 .728.068.819.091v-1.364a12.887 12.887 0 0 0-.705-.023c-1.045 0-1.955.591-2.273 1.455h-.091v-1.318h-1.295V108zm9.346.182c1.773 0 3.069-.887 3.478-2.205l-1.296-.363c-.341.909-1.13 1.363-2.182 1.363-1.573 0-2.659-1.017-2.721-2.886h6.335v-.568c0-3.25-1.932-4.364-3.75-4.364-2.364 0-3.932 1.864-3.932 4.546 0 2.681 1.546 4.477 4.068 4.477zm-2.721-5.25c.091-1.358 1.051-2.568 2.585-2.568 1.455 0 2.386 1.091 2.386 2.568h-4.971zm10.943 5.273c1.523 0 2.318-.819 2.591-1.387h.068V108h1.341v-5.75c0-2.773-2.114-3.09-3.227-3.09-1.318 0-2.818.454-3.5 2.045l1.273.454c.295-.636.994-1.318 2.272-1.318 1.233 0 1.841.653 1.841 1.773v.045c0 .648-.659.591-2.25.796-1.619.21-3.386.568-3.386 2.568 0 1.704 1.318 2.682 2.977 2.682zm.205-1.205c-1.069 0-1.841-.477-1.841-1.409 0-1.023.932-1.341 1.977-1.477.568-.069 2.091-.228 2.318-.5v1.227c0 1.091-.863 2.159-2.454 2.159zm12.424-5.773c-.42-1.238-1.363-2.068-3.091-2.068-1.84 0-3.204 1.046-3.204 2.523 0 1.204.716 2.011 2.318 2.386l1.455.341c.88.205 1.295.625 1.295 1.227 0 .75-.795 1.364-2.045 1.364-1.097 0-1.784-.472-2.023-1.409l-1.273.318c.313 1.483 1.534 2.273 3.318 2.273 2.029 0 3.409-1.108 3.409-2.614 0-1.216-.761-1.983-2.318-2.363l-1.295-.319c-1.034-.255-1.5-.602-1.5-1.272 0-.75.795-1.296 1.863-1.296 1.171 0 1.654.648 1.887 1.25l1.204-.341zm5.837 6.955c1.773 0 3.068-.887 3.477-2.205l-1.295-.363c-.341.909-1.131 1.363-2.182 1.363-1.574 0-2.659-1.017-2.722-2.886h6.336v-.568c0-3.25-1.932-4.364-3.75-4.364-2.364 0-3.932 1.864-3.932 4.546 0 2.681 1.545 4.477 4.068 4.477zm-2.722-5.25c.091-1.358 1.052-2.568 2.586-2.568 1.454 0 2.386 1.091 2.386 2.568h-4.972zm16.421 5.25c2.363 0 3.954-1.796 3.954-4.5 0-2.727-1.591-4.523-3.954-4.523-2.364 0-3.955 1.796-3.955 4.523 0 2.704 1.591 4.5 3.955 4.5zm0-1.205c-1.796 0-2.614-1.545-2.614-3.295s.818-3.318 2.614-3.318c1.795 0 2.613 1.568 2.613 3.318s-.818 3.295-2.613 3.295zm6.001 1.023h1.341v-5.523c0-1.182.932-2.045 2.205-2.045.358 0 .727.068.818.091v-1.364a12.887 12.887 0 0 0-.705-.023c-1.045 0-1.954.591-2.272 1.455h-.091v-1.318h-1.296V108zm-270.08 30.182c1.683 0 2.25-1.046 2.546-1.523h.16V138h1.295v-11.636h-1.341v4.295h-.114c-.295-.454-.818-1.5-2.523-1.5-2.204 0-3.727 1.75-3.727 4.5 0 2.773 1.523 4.523 3.705 4.523zm.183-1.205c-1.682 0-2.546-1.477-2.546-3.341 0-1.841.841-3.272 2.546-3.272 1.636 0 2.5 1.318 2.5 3.272 0 1.978-.887 3.341-2.5 3.341zm10.119 1.205c1.773 0 3.068-.887 3.477-2.205l-1.295-.363c-.341.909-1.131 1.363-2.182 1.363-1.574 0-2.66-1.017-2.722-2.886h6.336v-.568c0-3.25-1.932-4.364-3.75-4.364-2.364 0-3.932 1.864-3.932 4.546 0 2.681 1.545 4.477 4.068 4.477zm-2.722-5.25c.091-1.358 1.051-2.568 2.586-2.568 1.454 0 2.386 1.091 2.386 2.568h-4.972zm11.92 5.25c1.933 0 3.205-1.182 3.433-2.727h-1.341c-.25.954-1.046 1.522-2.091 1.522-1.591 0-2.614-1.318-2.614-3.341 0-1.977 1.046-3.272 2.614-3.272 1.181 0 1.886.727 2.09 1.522h1.342c-.228-1.636-1.614-2.727-3.455-2.727-2.364 0-3.932 1.864-3.932 4.523 0 2.613 1.5 4.5 3.955 4.5zm5.393-.182h1.34v-5.523c0-1.182.932-2.045 2.205-2.045.358 0 .728.068.818.091v-1.364a13.247 13.247 0 0 0-.704-.023c-1.046 0-1.955.591-2.273 1.455h-.09v-1.318h-1.296V138zm9.346.182c1.773 0 3.069-.887 3.478-2.205l-1.296-.363c-.34.909-1.13 1.363-2.182 1.363-1.573 0-2.659-1.017-2.721-2.886h6.335v-.568c0-3.25-1.932-4.364-3.75-4.364-2.364 0-3.932 1.864-3.932 4.546 0 2.681 1.546 4.477 4.068 4.477zm-2.721-5.25c.09-1.358 1.05-2.568 2.585-2.568 1.454 0 2.386 1.091 2.386 2.568H68.04zm10.943 5.273c1.523 0 2.318-.819 2.59-1.387h.069V138h1.341v-5.75c0-2.773-2.114-3.091-3.227-3.091-1.319 0-2.819.455-3.5 2.046l1.272.454c.296-.636.995-1.318 2.273-1.318 1.233 0 1.841.653 1.841 1.773v.045c0 .648-.659.591-2.25.796-1.62.21-3.386.568-3.386 2.568 0 1.704 1.318 2.682 2.977 2.682zm.204-1.205c-1.068 0-1.84-.477-1.84-1.409 0-1.023.931-1.341 1.977-1.477.568-.069 2.09-.228 2.318-.5v1.227c0 1.091-.864 2.159-2.454 2.159zm12.425-5.773c-.42-1.238-1.363-2.068-3.09-2.068-1.842 0-3.205 1.046-3.205 2.523 0 1.204.716 2.011 2.318 2.386l1.454.341c.881.205 1.296.625 1.296 1.227 0 .75-.796 1.364-2.046 1.364-1.096 0-1.784-.472-2.022-1.409l-1.273.318c.313 1.483 1.534 2.273 3.318 2.273 2.029 0 3.41-1.108 3.41-2.614 0-1.216-.762-1.983-2.319-2.363l-1.295-.319c-1.034-.255-1.5-.602-1.5-1.272 0-.75.795-1.296 1.863-1.296 1.17 0 1.654.648 1.887 1.25l1.204-.341zm5.837 6.955c1.773 0 3.068-.887 3.477-2.205l-1.295-.363c-.341.909-1.131 1.363-2.182 1.363-1.574 0-2.66-1.017-2.722-2.886h6.335v-.568c0-3.25-1.931-4.364-3.75-4.364-2.363 0-3.931 1.864-3.931 4.546 0 2.681 1.545 4.477 4.068 4.477zm-2.722-5.25c.091-1.358 1.051-2.568 2.585-2.568 1.455 0 2.387 1.091 2.387 2.568h-4.972zm16.671-3.659h-1.864v-2.091h-1.341v2.091h-1.318v1.136h1.318v5.455c0 1.522 1.227 2.25 2.364 2.25.5 0 .818-.091 1-.159l-.273-1.205c-.114.023-.295.068-.591.068-.591 0-1.159-.182-1.159-1.318v-5.091h1.864v-1.136zm3.545 3.477c0-1.523.972-2.386 2.296-2.386 1.261 0 2.022.795 2.022 2.181V138h1.341v-5.545c0-2.245-1.193-3.296-2.977-3.296-1.375 0-2.159.574-2.568 1.477h-.114v-4.272h-1.341V138h1.341v-5.25zm11.771 5.432c1.773 0 3.069-.887 3.478-2.205l-1.296-.363c-.341.909-1.13 1.363-2.182 1.363-1.573 0-2.659-1.017-2.721-2.886h6.335v-.568c0-3.25-1.932-4.364-3.75-4.364-2.364 0-3.932 1.864-3.932 4.546 0 2.681 1.546 4.477 4.068 4.477zm-2.721-5.25c.091-1.358 1.051-2.568 2.585-2.568 1.455 0 2.386 1.091 2.386 2.568h-4.971zm19.057-1.705c-.421-1.238-1.364-2.068-3.091-2.068-1.841 0-3.205 1.046-3.205 2.523 0 1.204.716 2.011 2.318 2.386l1.455.341c.881.205 1.295.625 1.295 1.227 0 .75-.795 1.364-2.045 1.364-1.097 0-1.784-.472-2.023-1.409l-1.272.318c.312 1.483 1.534 2.273 3.318 2.273 2.028 0 3.409-1.108 3.409-2.614 0-1.216-.762-1.983-2.318-2.363l-1.296-.319c-1.034-.255-1.5-.602-1.5-1.272 0-.75.796-1.296 1.864-1.296 1.17 0 1.653.648 1.886 1.25l1.205-.341zm5.723 6.955c1.932 0 3.204-1.182 3.432-2.727h-1.341c-.25.954-1.046 1.522-2.091 1.522-1.591 0-2.614-1.318-2.614-3.341 0-1.977 1.046-3.272 2.614-3.272 1.182 0 1.886.727 2.091 1.522h1.341c-.228-1.636-1.614-2.727-3.455-2.727-2.364 0-3.932 1.864-3.932 4.523 0 2.613 1.5 4.5 3.955 4.5zm8.937 0c2.364 0 3.955-1.796 3.955-4.5 0-2.727-1.591-4.523-3.955-4.523-2.363 0-3.954 1.796-3.954 4.523 0 2.704 1.591 4.5 3.954 4.5zm0-1.205c-1.795 0-2.613-1.545-2.613-3.295s.818-3.318 2.613-3.318c1.796 0 2.614 1.568 2.614 3.318s-.818 3.295-2.614 3.295zm6.002 4.296h1.341v-4.614h.113c.296.477.864 1.523 2.546 1.523 2.181 0 3.704-1.75 3.704-4.523 0-2.75-1.523-4.5-3.727-4.5-1.705 0-2.227 1.046-2.523 1.5h-.159v-1.386h-1.295v12zm1.318-7.637c0-1.954.863-3.272 2.5-3.272 1.704 0 2.545 1.431 2.545 3.272 0 1.864-.863 3.341-2.545 3.341-1.614 0-2.5-1.363-2.5-3.341zm12.091 4.546c1.772 0 3.068-.887 3.477-2.205l-1.295-.363c-.341.909-1.131 1.363-2.182 1.363-1.574 0-2.659-1.017-2.722-2.886h6.335v-.568c0-3.25-1.931-4.364-3.75-4.364-2.363 0-3.931 1.864-3.931 4.546 0 2.681 1.545 4.477 4.068 4.477zm-2.722-5.25c.091-1.358 1.051-2.568 2.585-2.568 1.455 0 2.387 1.091 2.387 2.568h-4.972zm16.762-3.659h-1.955v-.887c0-.863.364-1.318 1.25-1.318.386 0 .614.091.75.137l.386-1.16c-.204-.09-.613-.227-1.272-.227-1.25 0-2.455.75-2.455 2.25v1.205h-1.409v1.136h1.409V138h1.341v-7.591h1.955v-1.136zm5.065 8.909c2.363 0 3.954-1.796 3.954-4.5 0-2.727-1.591-4.523-3.954-4.523-2.364 0-3.955 1.796-3.955 4.523 0 2.704 1.591 4.5 3.955 4.5zm0-1.205c-1.796 0-2.614-1.545-2.614-3.295s.818-3.318 2.614-3.318c1.795 0 2.613 1.568 2.613 3.318s-.818 3.295-2.613 3.295zm6.001 1.023h1.341v-5.523c0-1.182.932-2.045 2.205-2.045.358 0 .727.068.818.091v-1.364a13.246 13.246 0 0 0-.705-.023c-1.045 0-1.954.591-2.272 1.455h-.091v-1.318h-1.296V138zm14.249-8.727h-1.864v-2.091h-1.341v2.091h-1.318v1.136h1.318v5.455c0 1.522 1.228 2.25 2.364 2.25.5 0 .818-.091 1-.159l-.273-1.205c-.113.023-.295.068-.591.068-.591 0-1.159-.182-1.159-1.318v-5.091h1.864v-1.136zm3.545 3.477c0-1.523.972-2.386 2.296-2.386 1.261 0 2.022.795 2.022 2.181V138h1.341v-5.545c0-2.245-1.193-3.296-2.977-3.296-1.375 0-2.159.574-2.568 1.477h-.114v-4.272h-1.341V138h1.341v-5.25zm8.113 5.25h1.34v-8.727h-1.34V138zm.681-10.182c.523 0 .955-.409.955-.909s-.432-.909-.955-.909c-.522 0-.954.409-.954.909s.432.909.954.909zm9.297 3.409c-.42-1.238-1.363-2.068-3.091-2.068-1.841 0-3.204 1.046-3.204 2.523 0 1.204.716 2.011 2.318 2.386l1.454.341c.881.205 1.296.625 1.296 1.227 0 .75-.796 1.364-2.046 1.364-1.096 0-1.784-.472-2.022-1.409l-1.273.318c.313 1.483 1.534 2.273 3.318 2.273 2.029 0 3.409-1.108 3.409-2.614 0-1.216-.761-1.983-2.318-2.363l-1.295-.319c-1.034-.255-1.5-.602-1.5-1.272 0-.75.795-1.296 1.863-1.296 1.171 0 1.654.648 1.887 1.25l1.204-.341zm6.678 10.046h1.341v-4.614h.113c.296.477.864 1.523 2.546 1.523 2.182 0 3.704-1.75 3.704-4.523 0-2.75-1.522-4.5-3.727-4.5-1.705 0-2.227 1.046-2.523 1.5h-.159v-1.386h-1.295v12zm1.318-7.637c0-1.954.864-3.272 2.5-3.272 1.704 0 2.545 1.431 2.545 3.272 0 1.864-.863 3.341-2.545 3.341-1.614 0-2.5-1.363-2.5-3.341zM254.54 138h1.341v-5.523c0-1.182.931-2.045 2.204-2.045.358 0 .727.068.818.091v-1.364a13.206 13.206 0 0 0-.704-.023c-1.046 0-1.955.591-2.273 1.455h-.091v-1.318h-1.295V138zm9.233.182c2.363 0 3.954-1.796 3.954-4.5 0-2.727-1.591-4.523-3.954-4.523-2.364 0-3.955 1.796-3.955 4.523 0 2.704 1.591 4.5 3.955 4.5zm0-1.205c-1.796 0-2.614-1.545-2.614-3.295s.818-3.318 2.614-3.318c1.795 0 2.613 1.568 2.613 3.318s-.818 3.295-2.613 3.295zm6.001-7.704v9.363c0 .887-.363 1.387-1.182 1.387h-.25v1.25h.273c1.682 0 2.5-1.023 2.5-2.637v-9.363h-1.341zm.659-1.455c.523 0 .955-.409.955-.909s-.432-.909-.955-.909c-.522 0-.954.409-.954.909s.432.909.954.909zm6.797 10.364c1.773 0 3.068-.887 3.477-2.205l-1.295-.363c-.341.909-1.131 1.363-2.182 1.363-1.574 0-2.659-1.017-2.721-2.886h6.335v-.568c0-3.25-1.932-4.364-3.75-4.364-2.364 0-3.932 1.864-3.932 4.546 0 2.681 1.545 4.477 4.068 4.477zm-2.721-5.25c.09-1.358 1.051-2.568 2.585-2.568 1.454 0 2.386 1.091 2.386 2.568h-4.971zm11.92 5.25c1.932 0 3.205-1.182 3.432-2.727h-1.341c-.25.954-1.046 1.522-2.091 1.522-1.591 0-2.614-1.318-2.614-3.341 0-1.977 1.046-3.272 2.614-3.272 1.182 0 1.886.727 2.091 1.522h1.341c-.227-1.636-1.614-2.727-3.455-2.727-2.363 0-3.932 1.864-3.932 4.523 0 2.613 1.5 4.5 3.955 4.5zm9.187-8.909h-1.863v-2.091h-1.341v2.091h-1.318v1.136h1.318v5.455c0 1.522 1.227 2.25 2.364 2.25.5 0 .818-.091 1-.159l-.273-1.205c-.114.023-.296.068-.591.068-.591 0-1.159-.182-1.159-1.318v-5.091h1.863v-1.136zm4.018 7.136h-1.455l-.068.636c-.165 1.54-.489 3.074-.637 3.796h1.023c.273-.773.852-2.523 1.046-3.818l.091-.614zm6.984 4.864h1.341v-4.614h.113c.296.477.864 1.523 2.546 1.523 2.182 0 3.704-1.75 3.704-4.523 0-2.75-1.522-4.5-3.727-4.5-1.704 0-2.227 1.046-2.523 1.5h-.159v-1.386h-1.295v12zm1.318-7.637c0-1.954.864-3.272 2.5-3.272 1.705 0 2.546 1.431 2.546 3.272 0 1.864-.864 3.341-2.546 3.341-1.614 0-2.5-1.363-2.5-3.341zm9.773-7.272h-1.341V138h1.341v-11.636zm6.115 11.818c1.773 0 3.068-.887 3.477-2.205l-1.295-.363c-.341.909-1.131 1.363-2.182 1.363-1.574 0-2.659-1.017-2.722-2.886h6.336v-.568c0-3.25-1.932-4.364-3.75-4.364-2.364 0-3.932 1.864-3.932 4.546 0 2.681 1.545 4.477 4.068 4.477zm-2.722-5.25c.091-1.358 1.051-2.568 2.586-2.568 1.454 0 2.386 1.091 2.386 2.568h-4.972zm10.943 5.273c1.523 0 2.319-.819 2.591-1.387h.069V138h1.34v-5.75c0-2.773-2.113-3.091-3.227-3.091-1.318 0-2.818.455-3.5 2.046l1.273.454c.295-.636.994-1.318 2.273-1.318 1.233 0 1.841.653 1.841 1.773v.045c0 .648-.66.591-2.25.796-1.62.21-3.387.568-3.387 2.568 0 1.704 1.318 2.682 2.977 2.682zm.205-1.205c-1.068 0-1.841-.477-1.841-1.409 0-1.023.932-1.341 1.977-1.477.569-.069 2.091-.228 2.319-.5v1.227c0 1.091-.864 2.159-2.455 2.159zm12.425-5.773c-.421-1.238-1.364-2.068-3.091-2.068-1.841 0-3.205 1.046-3.205 2.523 0 1.204.716 2.011 2.318 2.386l1.455.341c.881.205 1.295.625 1.295 1.227 0 .75-.795 1.364-2.045 1.364-1.097 0-1.784-.472-2.023-1.409l-1.272.318c.312 1.483 1.534 2.273 3.318 2.273 2.028 0 3.409-1.108 3.409-2.614 0-1.216-.762-1.983-2.318-2.363l-1.296-.319c-1.034-.255-1.5-.602-1.5-1.272 0-.75.796-1.296 1.864-1.296 1.17 0 1.653.648 1.886 1.25l1.205-.341zm5.836 6.955c1.773 0 3.069-.887 3.478-2.205l-1.296-.363c-.341.909-1.131 1.363-2.182 1.363-1.573 0-2.659-1.017-2.721-2.886h6.335v-.568c0-3.25-1.932-4.364-3.75-4.364-2.364 0-3.932 1.864-3.932 4.546 0 2.681 1.546 4.477 4.068 4.477zm-2.721-5.25c.091-1.358 1.051-2.568 2.585-2.568 1.455 0 2.386 1.091 2.386 2.568h-4.971zM34.568 156.364h-1.34V168h1.34v-11.636zm6.115 11.818c1.773 0 3.068-.887 3.477-2.205l-1.295-.363c-.34.909-1.13 1.363-2.182 1.363-1.574 0-2.659-1.017-2.721-2.886h6.335v-.568c0-3.25-1.932-4.364-3.75-4.364-2.364 0-3.932 1.864-3.932 4.546 0 2.681 1.545 4.477 4.068 4.477zm-2.721-5.25c.09-1.358 1.05-2.568 2.585-2.568 1.454 0 2.386 1.091 2.386 2.568h-4.971zm12.17-3.659H48.27v-2.091h-1.341v2.091H45.61v1.136h1.319v5.455c0 1.522 1.227 2.25 2.363 2.25.5 0 .818-.091 1-.159l-.272-1.205c-.114.023-.296.068-.591.068-.591 0-1.16-.182-1.16-1.318v-5.091h1.864v-1.136zM56.65 168h1.341v-5.455c0-1.278.932-2.181 1.977-2.181 1.017 0 1.728.664 1.728 1.659V168h1.363v-5.682c0-1.125.705-1.954 1.932-1.954.955 0 1.773.505 1.773 1.795V168h1.34v-5.841c0-2.051-1.102-3-2.658-3-1.25 0-2.165.574-2.614 1.477h-.09c-.433-.931-1.194-1.477-2.342-1.477-1.136 0-1.977.546-2.34 1.477h-.114v-1.363H56.65V168zm17.566.182c1.772 0 3.068-.887 3.477-2.205l-1.296-.363c-.34.909-1.13 1.363-2.181 1.363-1.574 0-2.66-1.017-2.722-2.886h6.335v-.568c0-3.25-1.932-4.364-3.75-4.364-2.364 0-3.932 1.864-3.932 4.546 0 2.681 1.546 4.477 4.069 4.477zm-2.722-5.25c.09-1.358 1.051-2.568 2.585-2.568 1.455 0 2.386 1.091 2.386 2.568h-4.971zM84.368 168h1.34v-3.267l.938-.869L89.913 168h1.705l-3.96-5 3.687-3.727h-1.659l-3.818 3.886h-.16v-6.795h-1.34V168zm10.044-5.25c0-1.523.943-2.386 2.227-2.386 1.245 0 2 .812 2 2.181V168h1.341v-5.545c0-2.228-1.187-3.296-2.954-3.296-1.319 0-2.137.591-2.546 1.477h-.114v-1.363h-1.295V168h1.34v-5.25zm11.564 5.432c2.363 0 3.954-1.796 3.954-4.5 0-2.727-1.591-4.523-3.954-4.523-2.364 0-3.955 1.796-3.955 4.523 0 2.704 1.591 4.5 3.955 4.5zm0-1.205c-1.796 0-2.614-1.545-2.614-3.295s.818-3.318 2.614-3.318c1.795 0 2.613 1.568 2.613 3.318s-.818 3.295-2.613 3.295zm7.682 1.023h1.318l1.909-6.705h.136L118.93 168h1.319l2.659-8.727h-1.409l-1.887 6.659h-.091l-1.841-6.659h-1.431l-1.864 6.682h-.091l-1.886-6.682h-1.409l2.659 8.727zm10.812.091c.563 0 1.023-.46 1.023-1.023 0-.562-.46-1.023-1.023-1.023-.562 0-1.023.461-1.023 1.023 0 .563.461 1.023 1.023 1.023z" fill="#4D536E"/><g style="mix-blend-mode:multiply"><path fill="#DBEBFF" d="M356 56H32v30h324z"/><path fill="#4A6EE0" d="M356 82.767H32V86h324z"/></g><g style="mix-blend-mode:multiply"><path fill="#DBEBFF" d="M313 86H32v30h281z"/><path fill="#4A6EE0" d="M313 112.767H32V116h281z"/></g><g style="mix-blend-mode:multiply"><path fill="#DBEBFF" d="M356 116H32v30h324z"/><path fill="#4A6EE0" d="M356 142.767H32V146h324z"/></g><g style="mix-blend-mode:multiply"><path fill="#DBEBFF" d="M127 146H32v30h95z"/><path fill="#4A6EE0" d="M127 172.767H32V176h95z"/></g></svg>